<?xml version="1.0" encoding="utf-8"?>
<!-- Generator: Adobe Illustrator 16.0.0, SVG Export Plug-In . SVG Version: 6.00 Build 0)  -->
<!DOCTYPE svg PUBLIC "-//W3C//DTD SVG 1.1//EN" "http://www.w3.org/Graphics/SVG/1.1/DTD/svg11.dtd">
<svg version="1.1" id="图层_1" xmlns="http://www.w3.org/2000/svg" xmlns:xlink="http://www.w3.org/1999/xlink" x="0px" y="0px"
	 width="32px" height="32px" viewBox="0 0 32 32" style="enable-background:new 0 0 32 32;" xml:space="preserve">
<style type="text/css">
<![CDATA[
	.st0{fill:none;stroke:#000000;stroke-linecap:round;stroke-linejoin:round;stroke-miterlimit:10;}
	.st1{display:none;}
]]>
</style>
<title>click</title>
<path class="st1" d="M14.379,5.333c0.294,0,0.533-0.239,0.533-0.533V0.533C14.912,0.239,14.673,0,14.379,0s-0.533,0.239-0.533,0.533
	V4.8C13.846,5.094,14.085,5.333,14.379,5.333z"/>
<path class="st1" d="M9.579,10.133C9.579,9.839,9.34,9.6,9.046,9.6H4.779c-0.294,0-0.533,0.239-0.533,0.533s0.239,0.533,0.533,0.533
	h4.267C9.34,10.666,9.579,10.427,9.579,10.133z"/>
<path class="st1" d="M19.18,10.133c0,0.294,0.238,0.533,0.532,0.533h4.267c0.295,0,0.533-0.239,0.533-0.533S24.273,9.6,23.979,9.6
	h-4.267C19.418,9.6,19.18,9.839,19.18,10.133z"/>
<path class="st1" d="M27.557,22.557L14.756,9.756c-0.154-0.151-0.381-0.197-0.581-0.115c-0.199,0.082-0.33,0.277-0.33,0.493v18.134
	c0,0.207,0.122,0.397,0.31,0.483c0.189,0.089,0.412,0.058,0.57-0.079l3.248-2.783l3.41,5.846c0.1,0.17,0.278,0.266,0.463,0.266
	c0.09,0,0.18-0.021,0.266-0.068l3.732-2.134c0.124-0.071,0.213-0.188,0.252-0.325c0.035-0.138,0.016-0.285-0.055-0.406l-3.266-5.599
	h4.404c0.215,0,0.41-0.13,0.492-0.329C27.755,22.939,27.709,22.709,27.557,22.557L27.557,22.557z M21.846,22.4
	c-0.191,0-0.367,0.102-0.463,0.268s-0.095,0.37,0.001,0.534l3.462,5.935l-2.807,1.604l-3.467-5.943
	c-0.08-0.137-0.217-0.231-0.372-0.257c-0.029-0.005-0.06-0.007-0.089-0.007c-0.127,0-0.25,0.045-0.348,0.128l-2.853,2.445V11.422
	L25.891,22.4h-4.047H21.846z"/>
<path class="st1" d="M7.967,2.969c-0.208-0.208-0.546-0.208-0.754,0s-0.208,0.546,0,0.754L10.23,6.74
	c0.105,0.103,0.241,0.156,0.378,0.156c0.137,0,0.273-0.051,0.377-0.156c0.208-0.208,0.208-0.546,0-0.754L7.967,2.969L7.967,2.969z"
	/>
<path class="st1" d="M18.15,6.895c0.137,0,0.272-0.051,0.377-0.156l3.017-3.017c0.208-0.208,0.208-0.546,0-0.754
	s-0.546-0.208-0.754,0l-3.017,3.017c-0.209,0.208-0.209,0.546,0,0.754C17.878,6.842,18.014,6.895,18.15,6.895L18.15,6.895z"/>
<path class="st1" d="M10.229,13.527l-3.017,3.018c-0.208,0.208-0.208,0.546,0,0.754c0.105,0.104,0.241,0.156,0.378,0.156
	c0.137,0,0.273-0.053,0.377-0.156l3.017-3.018c0.208-0.208,0.208-0.546,0-0.754S10.438,13.319,10.229,13.527L10.229,13.527z"/>
<path class="st0" d="M27.051,22.95h-5.205l3.747,6.287l-3.747,2.142l-3.771-6.196l-3.696,3.053V10.331L27.051,22.95z"/>
<path class="st0" d="M19.659,10.133h4.371"/>
<path class="st0" d="M18.113,6.399l3.09-3.09"/>
<path class="st0" d="M14.379,4.851V0.48"/>
<path class="st0" d="M10.5,6.4L7.409,3.309"/>
<path class="st0" d="M9.098,10.133H4.727"/>
<path class="st0" d="M10.5,13.868l-3.09,3.09"/>
</svg>
