<!-- Generated by IcoMoon.io -->
<svg version="1.1" xmlns="http://www.w3.org/2000/svg" width="32" height="32" viewBox="0 0 32 32">
<title>click</title>
<path d="M14.379 5.333c0.294 0 0.533-0.239 0.533-0.533v-4.267c0-0.294-0.239-0.533-0.533-0.533s-0.533 0.239-0.533 0.533v4.267c0 0.294 0.239 0.533 0.533 0.533z"></path>
<path d="M9.579 10.133c0-0.294-0.239-0.533-0.533-0.533h-4.267c-0.294 0-0.533 0.239-0.533 0.533s0.239 0.533 0.533 0.533h4.267c0.294 0 0.533-0.239 0.533-0.533z"></path>
<path d="M19.179 10.133c0 0.294 0.239 0.533 0.533 0.533h4.267c0.294 0 0.533-0.239 0.533-0.533s-0.239-0.533-0.533-0.533h-4.267c-0.294 0-0.533 0.239-0.533 0.533z"></path>
<path d="M27.556 22.556l-12.8-12.8c-0.154-0.151-0.381-0.197-0.581-0.115-0.199 0.082-0.33 0.277-0.33 0.493v18.133c0 0.208 0.122 0.398 0.31 0.484 0.189 0.089 0.412 0.057 0.57-0.079l3.248-2.784 3.41 5.847c0.1 0.17 0.278 0.265 0.462 0.265 0.090 0 0.181-0.022 0.266-0.069l3.733-2.133c0.124-0.071 0.213-0.189 0.251-0.325 0.036-0.138 0.017-0.285-0.054-0.407l-3.266-5.598h4.404c0.215 0 0.411-0.13 0.493-0.33 0.083-0.199 0.037-0.429-0.115-0.581zM21.845 22.4c-0.191 0-0.366 0.102-0.462 0.268s-0.095 0.37 0.001 0.534l3.462 5.935-2.807 1.604-3.467-5.943c-0.080-0.137-0.217-0.231-0.372-0.257-0.029-0.005-0.059-0.007-0.089-0.007-0.127 0-0.25 0.045-0.347 0.128l-2.853 2.446v-15.686l10.979 10.979h-4.046z"></path>
<path d="M7.967 2.969c-0.208-0.208-0.546-0.208-0.754 0s-0.208 0.546 0 0.754l3.017 3.017c0.105 0.103 0.241 0.156 0.378 0.156s0.273-0.051 0.377-0.156c0.208-0.208 0.208-0.546 0-0.754l-3.017-3.017z"></path>
<path d="M18.15 6.895c0.137 0 0.273-0.051 0.377-0.156l3.017-3.017c0.208-0.208 0.208-0.546 0-0.754s-0.546-0.208-0.754 0l-3.017 3.017c-0.208 0.208-0.208 0.546 0 0.754 0.105 0.103 0.241 0.156 0.378 0.156z"></path>
<path d="M10.229 13.527l-3.017 3.018c-0.208 0.208-0.208 0.546 0 0.754 0.105 0.103 0.241 0.156 0.378 0.156s0.273-0.052 0.377-0.156l3.017-3.018c0.208-0.208 0.208-0.546 0-0.754s-0.546-0.208-0.754 0z"></path>
</svg>
