<?xml version="1.0" encoding="utf-8"?>
<!-- Generator: Adobe Illustrator 16.0.0, SVG Export Plug-In . SVG Version: 6.00 Build 0)  -->
<!DOCTYPE svg PUBLIC "-//W3C//DTD SVG 1.1//EN" "http://www.w3.org/Graphics/SVG/1.1/DTD/svg11.dtd">
<svg version="1.1" id="图层_1" xmlns="http://www.w3.org/2000/svg" xmlns:xlink="http://www.w3.org/1999/xlink" x="0px" y="0px"
	 width="32px" height="32px" viewBox="0 0 32 32" style="enable-background:new 0 0 32 32;" xml:space="preserve">
<style type="text/css">
<![CDATA[
	.st0{fill:none;stroke:#000000;stroke-miterlimit:10;}
]]>
</style>
<title>fast</title>
<path class="st0" d="M16,0.434c7.691,0,13.93,1.997,13.93,4.447v2.224c0,2.45-6.238,4.446-13.93,4.446
	c-7.691,0-13.929-1.998-13.929-4.446V4.881C2.071,2.431,8.309,0.434,16,0.434z"/>
<path class="st0" d="M16,13.776c5.459,0,10.937-0.937,13.93-2.953v2.953c0,2.45-6.238,4.446-13.93,4.446
	c-7.691,0-13.929-1.998-13.929-4.446v-2.953C5.063,12.841,10.54,13.776,16,13.776z"/>
<path class="st0" d="M16,20.45c5.459,0,10.937-0.94,13.93-2.956v2.956c0,2.447-6.238,4.445-13.93,4.445
	c-7.691,0-13.929-1.998-13.929-4.445v-2.956C5.063,19.512,10.54,20.45,16,20.45z"/>
<path class="st0" d="M16,27.117c5.459,0,10.937-0.937,13.93-2.953v2.953c0,2.449-6.238,4.449-13.93,4.449
	c-7.691,0-13.929-2-13.929-4.449v-2.953C5.063,26.181,10.54,27.117,16,27.117z"/>
</svg>
