<!-- Generated by IcoMoon.io -->
<svg version="1.1" xmlns="http://www.w3.org/2000/svg" width="32" height="32" viewBox="0 0 32 32">
<title>datasource</title>
<path d="M9.137 5.181c0.099 0.171 0.278 0.267 0.463 0.267 0.091 0 0.182-0.022 0.266-0.071 0.255-0.147 0.342-0.474 0.195-0.729l-1.067-1.846c-0.148-0.256-0.476-0.346-0.729-0.195-0.255 0.147-0.342 0.474-0.195 0.729l1.067 1.846z"></path>
<path d="M2.8 8.995l1.847 1.067c0.084 0.049 0.176 0.071 0.267 0.071 0.185 0 0.364-0.096 0.462-0.267 0.147-0.256 0.060-0.581-0.195-0.729l-1.847-1.067c-0.256-0.149-0.581-0.060-0.729 0.195-0.147 0.256-0.060 0.581 0.195 0.729z"></path>
<path d="M29.42 8.341c-0.010-0.025-0.012-0.051-0.026-0.075-0.017-0.030-0.044-0.049-0.066-0.075-1.34-2.278-3.243-4.18-5.52-5.52-0.026-0.021-0.045-0.048-0.075-0.066-0.025-0.014-0.051-0.016-0.076-0.026-2.261-1.296-4.871-2.047-7.658-2.047-0.294 0-0.533 0.239-0.533 0.533v14.4h-14.4c-0.294 0-0.533 0.239-0.533 0.533 0 2.785 0.751 5.394 2.045 7.654 0.010 0.026 0.012 0.053 0.027 0.079 0.014 0.023 0.037 0.033 0.053 0.053 1.341 2.288 3.248 4.197 5.534 5.541 0.026 0.021 0.045 0.048 0.075 0.066 0.019 0.011 0.041 0.007 0.060 0.016 2.265 1.301 4.88 2.057 7.674 2.057s5.409-0.755 7.674-2.057c0.019-0.009 0.039-0.005 0.059-0.016 0.029-0.017 0.047-0.043 0.071-0.064 2.288-1.345 4.197-3.257 5.538-5.546 0.015-0.019 0.038-0.029 0.051-0.051 0.014-0.023 0.015-0.050 0.025-0.075 1.297-2.261 2.049-4.871 2.049-7.659s-0.752-5.397-2.047-7.659zM28.722 22.73l-1.371-0.791c-0.255-0.149-0.581-0.060-0.729 0.195-0.147 0.256-0.060 0.581 0.195 0.729l1.361 0.786c-1.153 1.829-2.703 3.379-4.532 4.532l-0.786-1.361c-0.148-0.256-0.476-0.345-0.729-0.195-0.255 0.147-0.342 0.474-0.195 0.729l0.791 1.37c-1.861 0.989-3.965 1.569-6.195 1.651v-1.573c0-0.294-0.239-0.533-0.533-0.533s-0.533 0.239-0.533 0.533v1.573c-2.23-0.082-4.337-0.658-6.198-1.647l0.794-1.374c0.147-0.256 0.060-0.581-0.195-0.729-0.255-0.148-0.581-0.060-0.729 0.195l-0.788 1.364c-1.829-1.153-3.376-2.706-4.529-4.537l1.36-0.785c0.255-0.147 0.342-0.473 0.195-0.729s-0.475-0.346-0.729-0.195l-1.362 0.786c-0.989-1.862-1.594-3.958-1.676-6.191h14.39c0.294 0 0.533-0.239 0.533-0.533v-14.39c2.233 0.081 4.329 0.686 6.192 1.676l-0.787 1.362c-0.147 0.256-0.060 0.581 0.195 0.729 0.084 0.049 0.176 0.071 0.267 0.071 0.183 0 0.363-0.095 0.462-0.267l0.785-1.36c1.829 1.153 3.382 2.7 4.535 4.529l-1.365 0.788c-0.255 0.147-0.342 0.474-0.195 0.729 0.099 0.171 0.278 0.267 0.463 0.267 0.091 0 0.181-0.022 0.266-0.071l1.375-0.794c0.989 1.861 1.565 3.968 1.647 6.198h-1.572c-0.294 0-0.533 0.239-0.533 0.533s0.239 0.533 0.533 0.533h1.573c-0.082 2.23-0.663 4.335-1.651 6.196z"></path>
</svg>
