<!-- Generated by IcoMoon.io -->
<svg version="1.1" xmlns="http://www.w3.org/2000/svg" width="32" height="32" viewBox="0 0 32 32">
<title>develop</title>
<path d="M28.8 0.533h-25.6c-1.47 0-2.667 1.196-2.667 2.667v25.6c0 1.471 1.197 2.667 2.667 2.667h25.6c1.47 0 2.667-1.196 2.667-2.667v-25.6c0-1.471-1.197-2.667-2.667-2.667zM30.4 28.8c0 0.882-0.718 1.6-1.6 1.6h-25.6c-0.882 0-1.6-0.718-1.6-1.6v-25.6c0-0.882 0.718-1.6 1.6-1.6h25.6c0.882 0 1.6 0.718 1.6 1.6v25.6z"></path>
<path d="M25.6 19.733h-19.2c-1.47 0-2.667 1.196-2.667 2.667v3.2c0 1.471 1.197 2.667 2.667 2.667h19.2c1.47 0 2.667-1.196 2.667-2.667v-3.2c0-1.471-1.197-2.667-2.667-2.667zM27.2 25.6c0 0.882-0.718 1.6-1.6 1.6h-19.2c-0.882 0-1.6-0.718-1.6-1.6v-3.2c0-0.882 0.718-1.6 1.6-1.6h19.2c0.882 0 1.6 0.718 1.6 1.6v3.2z"></path>
<path d="M9.977 22.023c-0.208-0.208-0.546-0.208-0.754 0l-1.222 1.222-1.222-1.222c-0.208-0.208-0.546-0.208-0.754 0s-0.208 0.546 0 0.754l1.221 1.222-1.222 1.222c-0.208 0.208-0.208 0.546 0 0.754 0.105 0.105 0.241 0.157 0.378 0.157s0.273-0.052 0.377-0.156l1.223-1.222 1.222 1.222c0.105 0.103 0.241 0.156 0.378 0.156s0.273-0.052 0.377-0.156c0.208-0.208 0.208-0.546 0-0.754l-1.222-1.223 1.222-1.222c0.208-0.208 0.208-0.546 0-0.754z"></path>
<path d="M15.31 22.023c-0.208-0.208-0.546-0.208-0.754 0l-1.222 1.222-1.222-1.222c-0.208-0.208-0.546-0.208-0.754 0s-0.208 0.546 0 0.754l1.222 1.222-1.222 1.222c-0.208 0.208-0.208 0.546 0 0.754 0.103 0.105 0.24 0.157 0.377 0.157s0.273-0.052 0.377-0.156l1.222-1.222 1.222 1.222c0.106 0.103 0.242 0.156 0.379 0.156s0.273-0.052 0.377-0.156c0.208-0.208 0.208-0.546 0-0.754l-1.222-1.223 1.222-1.222c0.208-0.208 0.208-0.546 0-0.754z"></path>
<path d="M20.643 22.023c-0.208-0.208-0.546-0.208-0.754 0l-1.222 1.222-1.222-1.222c-0.208-0.208-0.546-0.208-0.754 0s-0.208 0.546 0 0.754l1.222 1.222-1.222 1.222c-0.208 0.208-0.208 0.546 0 0.754 0.103 0.105 0.24 0.157 0.377 0.157s0.273-0.052 0.377-0.156l1.222-1.222 1.222 1.222c0.106 0.103 0.242 0.156 0.379 0.156s0.273-0.052 0.377-0.156c0.208-0.208 0.208-0.546 0-0.754l-1.222-1.223 1.222-1.222c0.208-0.208 0.208-0.546 0-0.754z"></path>
<path d="M25.977 22.023c-0.208-0.208-0.546-0.208-0.754 0l-1.222 1.222-1.222-1.222c-0.208-0.208-0.546-0.208-0.754 0s-0.208 0.546 0 0.754l1.222 1.222-1.222 1.222c-0.208 0.208-0.208 0.546 0 0.754 0.103 0.105 0.24 0.157 0.377 0.157s0.273-0.052 0.377-0.156l1.222-1.222 1.222 1.222c0.106 0.103 0.242 0.156 0.379 0.156s0.273-0.052 0.377-0.156c0.208-0.208 0.208-0.546 0-0.754l-1.222-1.223 1.222-1.222c0.208-0.208 0.208-0.546 0-0.754z"></path>
<path d="M8.081 11.17c0.018 0.128 0.034 0.256 0.059 0.382 0.026 0.131 0.060 0.26 0.092 0.389 0.025 0.096 0.046 0.192 0.074 0.286 0.042 0.142 0.091 0.279 0.14 0.418 0.028 0.078 0.055 0.157 0.085 0.234 0.058 0.145 0.122 0.287 0.188 0.428 0.031 0.066 0.062 0.133 0.096 0.198 0.074 0.145 0.153 0.287 0.236 0.426 0.034 0.058 0.068 0.114 0.105 0.171 0.090 0.143 0.185 0.282 0.284 0.417 0.036 0.049 0.073 0.098 0.11 0.147 0.106 0.138 0.215 0.271 0.33 0.401 0.018 0.021 0.034 0.044 0.053 0.064 0.004 0.004 0.011 0.005 0.014 0.010 1.366 1.506 3.332 2.459 5.522 2.459 2.188 0 4.153-0.953 5.52-2.457 0.004-0.005 0.012-0.006 0.016-0.012 0.019-0.020 0.034-0.044 0.053-0.064 0.115-0.13 0.225-0.263 0.331-0.401 0.037-0.048 0.074-0.097 0.109-0.145 0.1-0.137 0.195-0.276 0.286-0.42 0.035-0.055 0.068-0.111 0.101-0.167 0.083-0.141 0.163-0.284 0.238-0.43 0.033-0.064 0.063-0.129 0.094-0.194 0.067-0.142 0.131-0.285 0.19-0.432 0.030-0.076 0.057-0.153 0.084-0.229 0.050-0.14 0.099-0.279 0.141-0.422 0.027-0.092 0.048-0.186 0.073-0.279 0.033-0.131 0.067-0.261 0.093-0.396 0.025-0.125 0.039-0.251 0.058-0.375 0.015-0.107 0.034-0.212 0.045-0.321 0.023-0.238 0.036-0.478 0.036-0.72 0-0.257-0.013-0.512-0.038-0.763-0.051-0.501-0.153-0.988-0.298-1.455s-0.336-0.915-0.566-1.339c-0.461-0.846-1.079-1.595-1.818-2.204-1.291-1.067-2.945-1.708-4.747-1.708s-3.456 0.641-4.747 1.708c-0.738 0.61-1.357 1.358-1.818 2.205-0.23 0.422-0.42 0.87-0.566 1.338s-0.246 0.954-0.298 1.455c-0.026 0.251-0.038 0.506-0.038 0.763 0 0.242 0.013 0.482 0.036 0.721 0.011 0.107 0.030 0.21 0.045 0.316zM11.001 14.709c0.98-1.511 2.652-2.443 4.466-2.443s3.486 0.931 4.466 2.443c-1.154 1.126-2.73 1.824-4.466 1.824s-3.312-0.698-4.466-1.824zM13.333 9.067c0-1.177 0.957-2.133 2.133-2.133s2.133 0.957 2.133 2.133-0.957 2.133-2.133 2.133-2.133-0.957-2.133-2.133zM13.566 4.021c0.401-0.125 0.818-0.211 1.248-0.255 0.214-0.022 0.432-0.033 0.653-0.033 3.53 0 6.4 2.87 6.4 6.4 0 0.304-0.029 0.605-0.071 0.902-0.009 0.058-0.017 0.116-0.027 0.174-0.106 0.614-0.298 1.209-0.576 1.765-0.009 0.017-0.017 0.035-0.026 0.053-0.145 0.285-0.311 0.559-0.5 0.821-0.002 0.003-0.005 0.007-0.007 0.011-0.794-1.101-1.914-1.904-3.181-2.325 0.719-0.588 1.188-1.47 1.188-2.468 0-1.764-1.436-3.2-3.2-3.2s-3.2 1.436-3.2 3.2c0 0.998 0.469 1.881 1.188 2.468-1.267 0.421-2.387 1.225-3.181 2.325-0.002-0.003-0.005-0.007-0.007-0.011-0.188-0.261-0.354-0.535-0.499-0.819-0.010-0.019-0.018-0.038-0.028-0.058-0.277-0.556-0.469-1.15-0.575-1.763-0.010-0.058-0.018-0.116-0.027-0.174-0.043-0.298-0.071-0.598-0.071-0.902 0-1.545 0.549-2.962 1.463-4.069 0.391-0.475 0.85-0.892 1.361-1.236 0.51-0.346 1.073-0.619 1.675-0.806z"></path>
</svg>
