<!-- Generated by IcoMoon.io -->
<svg version="1.1" xmlns="http://www.w3.org/2000/svg" width="32" height="32" viewBox="0 0 32 32">
<title>develop</title>
<path d="M29.488 7.084c-0-0.003-0.001-0.005-0.001-0.007-0.002-0.023-0.004-0.047-0.007-0.070-0-0.003-0.001-0.007-0.001-0.010-0.014-0.109-0.045-0.214-0.088-0.31-0-0-0-0.001-0.001-0.001-0.021-0.048-0.046-0.094-0.074-0.138-0.003-0.005-0.006-0.009-0.009-0.014-0.012-0.018-0.024-0.037-0.038-0.055-0.005-0.007-0.010-0.013-0.015-0.019-0.010-0.013-0.020-0.025-0.030-0.038-0.007-0.009-0.015-0.018-0.023-0.027s-0.015-0.016-0.022-0.024c-0.008-0.009-0.016-0.018-0.024-0.026l-6.172-6.063c-0.175-0.177-0.407-0.296-0.668-0.327-0.001 0-0.001 0-0.002-0-0.025-0.003-0.051-0.005-0.076-0.006-0.006-0-0.011-0-0.017-0.001-0.012-0-0.024-0.001-0.036-0.001h-18.549c-0.621 0-1.125 0.503-1.125 1.125v29.858c0 0.622 0.504 1.125 1.125 1.125h24.732c0.621 0 1.124-0.504 1.124-1.125v-23.783c0-0.021-0.001-0.041-0.002-0.062v0zM23.307 3.753l2.309 2.269h-2.309v-2.269zM27.242 29.804h-22.485v-27.608h16.301v4.951c0 0.621 0.505 1.125 1.124 1.125h5.059v21.532z"></path>
<path d="M25.183 17.567l-4.58 4.58c-0.181 0.181-0.474 0.181-0.654 0l-0.654-0.654c-0.181-0.181-0.181-0.474 0-0.654l3.599-3.599-3.599-3.599c-0.181-0.181-0.181-0.474 0-0.654l0.654-0.654c0.181-0.181 0.474-0.181 0.654 0l4.58 4.581c0.181 0.181 0.181 0.474 0 0.654v0zM14.397 24.9l-0.835-0.234c-0.231-0.064-0.372-0.293-0.317-0.51l3.72-14.306c0.059-0.222 0.308-0.348 0.555-0.283l0.894 0.24c0.247 0.066 0.399 0.3 0.339 0.522l-3.837 14.294c-0.055 0.217-0.288 0.34-0.519 0.276v0zM12.928 21.494l-0.654 0.654c-0.181 0.181-0.474 0.181-0.654 0l-4.581-4.58c-0.181-0.181-0.181-0.474 0-0.654l4.581-4.581c0.181-0.181 0.474-0.181 0.654 0l0.654 0.654c0.181 0.181 0.181 0.474 0 0.654l-3.599 3.599 3.599 3.599c0.181 0.181 0.181 0.474 0 0.654v0z"></path>
</svg>
