<?xml version="1.0" encoding="utf-8"?>
<!-- Generator: Adobe Illustrator 16.0.0, SVG Export Plug-In . SVG Version: 6.00 Build 0)  -->
<!DOCTYPE svg PUBLIC "-//W3C//DTD SVG 1.1//EN" "http://www.w3.org/Graphics/SVG/1.1/DTD/svg11.dtd">
<svg version="1.1" id="图层_1" xmlns="http://www.w3.org/2000/svg" xmlns:xlink="http://www.w3.org/1999/xlink" x="0px" y="0px"
	 width="32px" height="32px" viewBox="0 0 32 32" style="enable-background:new 0 0 32 32;" xml:space="preserve">
<style type="text/css">
<![CDATA[
	.st0{fill:none;stroke:#080103;stroke-width:1.08;stroke-linecap:round;stroke-linejoin:round;stroke-miterlimit:10;}
	.st1{display:none;}
]]>
</style>
<title>develop</title>
<path class="st1" d="M28.8,0.533H3.2c-1.47,0-2.667,1.196-2.667,2.667v25.6c0,1.472,1.197,2.667,2.667,2.667h25.6
	c1.47,0,2.667-1.195,2.667-2.667V3.2C31.467,1.729,30.27,0.533,28.8,0.533z M30.4,28.8c0,0.882-0.719,1.601-1.601,1.601H3.2
	c-0.882,0-1.6-0.719-1.6-1.601V3.2c0-0.882,0.718-1.6,1.6-1.6h25.6c0.882,0,1.601,0.718,1.601,1.6V28.8z"/>
<path class="st1" d="M25.6,19.732H6.4c-1.47,0-2.667,1.197-2.667,2.668V25.6c0,1.471,1.197,2.668,2.667,2.668h19.2
	c1.471,0,2.668-1.197,2.668-2.668V22.4C28.268,20.93,27.07,19.732,25.6,19.732z M27.2,25.6c0,0.883-0.718,1.601-1.601,1.601H6.4
	c-0.882,0-1.6-0.718-1.6-1.601V22.4c0-0.883,0.718-1.601,1.6-1.601h19.2c0.883,0,1.601,0.718,1.601,1.601V25.6z"/>
<path class="st1" d="M9.977,22.023c-0.208-0.209-0.546-0.209-0.754,0l-1.222,1.222l-1.222-1.222c-0.208-0.209-0.546-0.209-0.754,0
	c-0.208,0.207-0.208,0.545,0,0.754l1.221,1.222l-1.222,1.222c-0.208,0.209-0.208,0.547,0,0.754c0.105,0.105,0.241,0.157,0.378,0.157
	c0.137,0,0.273-0.052,0.377-0.155l1.223-1.223l1.222,1.223c0.105,0.103,0.241,0.155,0.378,0.155c0.137,0,0.273-0.052,0.377-0.155
	c0.208-0.209,0.208-0.547,0-0.754l-1.222-1.224l1.222-1.222c0.208-0.209,0.208-0.547,0-0.754H9.977z"/>
<path class="st1" d="M15.31,22.023c-0.208-0.209-0.546-0.209-0.754,0l-1.222,1.222l-1.222-1.222c-0.208-0.209-0.546-0.209-0.754,0
	c-0.208,0.207-0.208,0.545,0,0.754l1.222,1.222l-1.222,1.222c-0.208,0.209-0.208,0.547,0,0.754c0.103,0.105,0.24,0.157,0.377,0.157
	c0.137,0,0.273-0.052,0.377-0.155l1.222-1.223l1.222,1.223c0.106,0.103,0.242,0.155,0.379,0.155c0.137,0,0.273-0.052,0.377-0.155
	c0.208-0.209,0.208-0.547,0-0.754l-1.222-1.224l1.222-1.222c0.208-0.209,0.208-0.547,0-0.754H15.31z"/>
<path class="st1" d="M20.643,22.023c-0.207-0.209-0.545-0.209-0.754,0l-1.222,1.222l-1.222-1.222c-0.209-0.209-0.547-0.209-0.754,0
	c-0.208,0.207-0.208,0.545,0,0.754l1.222,1.222l-1.222,1.222c-0.208,0.209-0.208,0.547,0,0.754c0.103,0.105,0.24,0.157,0.377,0.157
	s0.272-0.052,0.377-0.155l1.222-1.223l1.222,1.223c0.106,0.103,0.242,0.155,0.379,0.155s0.273-0.052,0.377-0.155
	c0.209-0.209,0.209-0.547,0-0.754l-1.222-1.224l1.222-1.222c0.209-0.209,0.209-0.547,0-0.754H20.643z"/>
<path class="st1" d="M25.977,22.023c-0.207-0.209-0.545-0.209-0.754,0l-1.222,1.222l-1.222-1.222c-0.209-0.209-0.547-0.209-0.754,0
	c-0.209,0.207-0.209,0.545,0,0.754l1.222,1.222l-1.222,1.222c-0.209,0.209-0.209,0.547,0,0.754c0.103,0.105,0.24,0.157,0.377,0.157
	s0.272-0.052,0.377-0.155l1.222-1.223l1.222,1.223c0.106,0.103,0.242,0.155,0.379,0.155s0.273-0.052,0.377-0.155
	c0.209-0.209,0.209-0.547,0-0.754l-1.222-1.224l1.222-1.222c0.209-0.209,0.209-0.547,0-0.754H25.977z"/>
<path class="st1" d="M8.081,11.17c0.018,0.128,0.034,0.256,0.059,0.382c0.026,0.131,0.06,0.26,0.092,0.389
	c0.025,0.096,0.046,0.192,0.074,0.286c0.042,0.142,0.091,0.279,0.14,0.418c0.028,0.078,0.055,0.157,0.085,0.234
	c0.058,0.145,0.122,0.287,0.188,0.428c0.031,0.066,0.062,0.133,0.096,0.198c0.074,0.145,0.153,0.287,0.236,0.426
	c0.034,0.058,0.068,0.114,0.105,0.171c0.09,0.143,0.185,0.282,0.284,0.417c0.036,0.049,0.073,0.098,0.11,0.147
	c0.106,0.138,0.215,0.271,0.33,0.401c0.018,0.021,0.034,0.044,0.053,0.064c0.004,0.004,0.011,0.005,0.014,0.01
	c1.366,1.505,3.332,2.458,5.522,2.458c2.188,0,4.153-0.953,5.519-2.457c0.005-0.005,0.013-0.006,0.017-0.012
	c0.019-0.02,0.034-0.044,0.054-0.064c0.114-0.13,0.225-0.263,0.33-0.401c0.037-0.048,0.074-0.097,0.109-0.145
	c0.1-0.137,0.195-0.276,0.286-0.42c0.034-0.055,0.067-0.111,0.101-0.167c0.083-0.141,0.163-0.284,0.238-0.43
	c0.033-0.064,0.063-0.129,0.094-0.194c0.067-0.142,0.131-0.285,0.19-0.432c0.03-0.076,0.057-0.153,0.084-0.229
	c0.05-0.14,0.099-0.279,0.141-0.422c0.027-0.092,0.048-0.186,0.073-0.279c0.033-0.131,0.066-0.261,0.093-0.396
	c0.025-0.125,0.039-0.251,0.058-0.375c0.016-0.107,0.035-0.212,0.045-0.321c0.023-0.238,0.037-0.478,0.037-0.72
	c0-0.257-0.014-0.512-0.039-0.763c-0.051-0.501-0.152-0.988-0.297-1.455c-0.146-0.467-0.336-0.915-0.566-1.339
	c-0.461-0.846-1.079-1.595-1.818-2.204c-1.291-1.067-2.945-1.708-4.747-1.708c-1.802,0-3.456,0.641-4.747,1.708
	C9.985,4.985,9.366,5.733,8.905,6.58c-0.23,0.422-0.42,0.87-0.566,1.338S8.093,8.872,8.041,9.373
	c-0.026,0.251-0.038,0.506-0.038,0.763c0,0.242,0.013,0.482,0.036,0.721c0.011,0.107,0.03,0.21,0.045,0.316L8.081,11.17z
	 M11.001,14.709c0.98-1.511,2.652-2.443,4.466-2.443c1.814,0,3.486,0.931,4.467,2.443c-1.154,1.126-2.73,1.824-4.467,1.824
	C13.731,16.533,12.155,15.835,11.001,14.709z M13.333,9.067c0-1.177,0.957-2.133,2.133-2.133c1.177,0,2.134,0.957,2.134,2.133
	c0,1.176-0.957,2.133-2.134,2.133C14.29,11.2,13.333,10.243,13.333,9.067z M13.566,4.021c0.401-0.125,0.818-0.211,1.248-0.255
	c0.214-0.022,0.432-0.033,0.653-0.033c3.53,0,6.4,2.87,6.4,6.4c0,0.304-0.029,0.605-0.071,0.902
	c-0.009,0.058-0.017,0.116-0.026,0.174c-0.106,0.614-0.299,1.209-0.576,1.765c-0.01,0.017-0.018,0.035-0.026,0.053
	c-0.146,0.285-0.312,0.559-0.5,0.821c-0.002,0.003-0.005,0.007-0.007,0.011c-0.794-1.101-1.914-1.904-3.182-2.325
	c0.72-0.588,1.188-1.47,1.188-2.468c0-1.764-1.437-3.2-3.2-3.2s-3.2,1.436-3.2,3.2c0,0.998,0.469,1.881,1.188,2.468
	c-1.267,0.421-2.387,1.225-3.181,2.325c-0.002-0.003-0.005-0.007-0.007-0.011c-0.188-0.261-0.354-0.535-0.499-0.819
	c-0.01-0.019-0.018-0.038-0.028-0.058c-0.277-0.556-0.469-1.15-0.575-1.763c-0.01-0.058-0.018-0.116-0.027-0.174
	c-0.043-0.298-0.071-0.598-0.071-0.902c0-1.545,0.549-2.962,1.463-4.069c0.391-0.475,0.85-0.892,1.361-1.236
	C12.401,4.481,12.964,4.208,13.566,4.021z"/>
<path class="st1" d="M10.067,23.612l-0.866,0.864c-0.225,0.225-0.571,0.225-0.796,0l-8.073-8.072c-0.225-0.225-0.225-0.571,0-0.796
	l8.073-8.073c0.225-0.225,0.571-0.225,0.796,0l0.866,0.866c0.226,0.225,0.226,0.572,0,0.797L3.26,16.006l6.807,6.808
	C10.293,23.038,10.293,23.385,10.067,23.612L10.067,23.612z M20.308,5.127l-6.464,22.364c-0.086,0.295-0.397,0.468-0.675,0.382
	l-1.074-0.295c-0.294-0.087-0.468-0.398-0.381-0.694l6.46-22.362c0.088-0.294,0.4-0.468,0.678-0.381l1.073,0.294
	C20.22,4.521,20.393,4.833,20.308,5.127L20.308,5.127z M31.688,16.404l-8.074,8.072c-0.226,0.225-0.569,0.225-0.795,0l-0.866-0.864
	c-0.228-0.225-0.228-0.574,0-0.799l6.808-6.808l-6.808-6.808c-0.228-0.225-0.228-0.572,0-0.797l0.866-0.866
	c0.226-0.225,0.569-0.225,0.795,0l8.074,8.073C31.912,15.833,31.912,16.18,31.688,16.404L31.688,16.404z"/>
<path class="st0" d="M8.546,24.008l-7.95-8.011l7.95-8.072"/>
<path class="st0" d="M19.433,4.194l-6.911,23.851"/>
<path class="st0" d="M23.271,7.927l8.118,7.841l-7.777,8.238"/>
</svg>
