<!-- Generated by IcoMoon.io -->
<svg version="1.1" xmlns="http://www.w3.org/2000/svg" width="32" height="32" viewBox="0 0 32 32">
<title>diagnosis</title>
<path d="M25.949 12.465c-0.002-0.002-0.002-0.004-0.004-0.006s-0.004-0.002-0.006-0.004l-6.369-6.369c-0.002-0.002-0.002-0.004-0.004-0.006s-0.004-0.002-0.006-0.004l-1.59-1.59c-0.207-0.207-0.544-0.207-0.752 0s-0.207 0.544 0 0.752l1.22 1.22-13.976 13.976c-0.125 0.125-0.181 0.306-0.146 0.48l1.008 5.038-5.116 5.116c-0.207 0.207-0.207 0.544 0 0.752 0.104 0.104 0.239 0.156 0.375 0.156s0.272-0.052 0.375-0.155l5.116-5.116 5.037 1.008c0.035 0.007 0.070 0.011 0.104 0.011 0.139 0 0.275-0.055 0.376-0.156l13.977-13.977 1.218 1.22c0.105 0.103 0.24 0.155 0.376 0.155s0.272-0.052 0.375-0.155c0.207-0.207 0.207-0.544 0-0.752l-1.59-1.591zM11.041 26.612l-4.69-0.938-0.938-4.69 1.814-1.814 1.484 1.484c0.106 0.103 0.241 0.155 0.377 0.155s0.272-0.052 0.375-0.155c0.207-0.207 0.207-0.544 0-0.752l-1.484-1.485 1.641-1.641 1.218 1.218c0.105 0.104 0.24 0.156 0.376 0.156s0.272-0.052 0.375-0.155c0.207-0.207 0.207-0.544 0-0.752l-1.218-1.22 1.375-1.375 1.75 1.75c0.105 0.104 0.24 0.156 0.376 0.156s0.272-0.052 0.375-0.155c0.207-0.207 0.207-0.544 0-0.752l-1.75-1.751 1.641-1.641 1.484 1.484c0.105 0.104 0.24 0.156 0.376 0.156s0.272-0.052 0.375-0.155c0.207-0.207 0.207-0.544 0-0.752l-1.484-1.484 1.641-1.642 1.75 1.75c0.105 0.104 0.24 0.156 0.376 0.156s0.272-0.052 0.375-0.155c0.207-0.207 0.207-0.544 0-0.752l-1.75-1.751 1.906-1.906 5.628 5.628-13.776 13.776z"></path>
<path d="M31.793 7.676l-7.443-7.443c-0.207-0.207-0.544-0.207-0.752 0s-0.207 0.544 0 0.752l1.218 1.218-2.813 2.813c-0.207 0.207-0.207 0.544 0 0.752 0.104 0.104 0.239 0.156 0.375 0.156s0.272-0.052 0.375-0.155l2.814-2.814 3.501 3.501-2.813 2.813c-0.207 0.207-0.207 0.544 0 0.752 0.104 0.104 0.239 0.156 0.375 0.156s0.272-0.052 0.375-0.155l2.814-2.814 1.218 1.218c0.105 0.104 0.24 0.156 0.376 0.156s0.272-0.052 0.375-0.155c0.208-0.207 0.208-0.544 0.001-0.752z"></path>
</svg>
