<?xml version="1.0" encoding="utf-8"?>
<!-- Generator: Adobe Illustrator 16.0.0, SVG Export Plug-In . SVG Version: 6.00 Build 0)  -->
<!DOCTYPE svg PUBLIC "-//W3C//DTD SVG 1.1//EN" "http://www.w3.org/Graphics/SVG/1.1/DTD/svg11.dtd">
<svg version="1.1" id="图层_1" xmlns="http://www.w3.org/2000/svg" xmlns:xlink="http://www.w3.org/1999/xlink" x="0px" y="0px"
	 width="32px" height="32px" viewBox="0 0 32 32" style="enable-background:new 0 0 32 32;" xml:space="preserve">
<style type="text/css">
<![CDATA[
	.st0{fill:none;stroke:#000000;stroke-linecap:round;stroke-linejoin:round;stroke-miterlimit:10;}
	.st1{display:none;}
]]>
</style>
<title>domain</title>
<path class="st1" d="M29.14,8.57h-1.76c-2.46-3.58-6.47-5.71-10.81-5.71c-4.34,0-8.35,2.13-10.811,5.71h-2.9
	C1.28,8.57,0,9.85,0,11.43v8c0,1.57,1.28,2.86,2.86,2.86h2.2C7.28,26.35,11.4,28.9,16,29.1c0.19,0.03,0.38,0.04,0.57,0.04
	c0.199,0,0.38-0.01,0.569-0.04c4.601-0.189,8.721-2.75,10.94-6.81h1.06c1.58,0,2.86-1.29,2.86-2.86v-8
	C32,9.85,30.72,8.57,29.14,8.57z M25.99,8.57H22.7c-0.641-1.66-1.47-3.01-2.42-3.97C22.51,5.33,24.5,6.69,25.99,8.57z M17.14,4.06
	c1.69,0.31,3.261,1.92,4.341,4.51H17.14V4.06z M16,4.06v4.51h-4.34C12.74,5.98,14.31,4.37,16,4.06z M12.86,4.6
	c-0.95,0.97-1.78,2.31-2.42,3.97H7.16C8.64,6.69,10.63,5.33,12.86,4.6z M6.36,22.29h3.69c0.66,2.17,1.63,3.91,2.79,5.09
	C10.17,26.51,7.87,24.74,6.36,22.29z M16,27.93c-1.92-0.359-3.71-2.46-4.76-5.64H16V27.93z M17.14,27.93v-5.64H21.9
	C20.86,25.47,19.07,27.57,17.14,27.93z M20.3,27.38c1.16-1.18,2.141-2.92,2.8-5.09h3.681C25.28,24.74,22.97,26.51,20.3,27.38z
	 M30.86,19.43c0,0.94-0.771,1.71-1.721,1.71H2.86c-0.95,0-1.72-0.77-1.72-1.71v-8c0-0.95,0.77-1.72,1.72-1.72h26.28
	c0.95,0,1.721,0.77,1.721,1.72V19.43z"/>
<path class="st1" d="M9.824,12.011c-0.314-0.063-0.61,0.138-0.672,0.448L8.336,16.54l-0.969-1.939c-0.194-0.387-0.829-0.387-1.023,0
	L5.375,16.54l-0.816-4.081c-0.061-0.309-0.36-0.511-0.672-0.448c-0.309,0.063-0.51,0.362-0.448,0.672l1.143,5.713
	c0.048,0.239,0.242,0.422,0.485,0.455c0.246,0.034,0.479-0.094,0.587-0.312l1.203-2.406l1.203,2.407
	c0.097,0.195,0.296,0.314,0.511,0.314c0.025,0,0.05,0,0.073-0.006c0.242-0.031,0.437-0.215,0.485-0.453l1.143-5.714
	C10.334,12.372,10.134,12.072,9.824,12.011L9.824,12.011z"/>
<path class="st1" d="M18.967,12.011c-0.313-0.063-0.609,0.138-0.672,0.448l-0.816,4.081l-0.969-1.939
	c-0.194-0.387-0.829-0.387-1.023,0l-0.969,1.939l-0.816-4.081c-0.061-0.309-0.359-0.511-0.672-0.448
	c-0.309,0.063-0.51,0.362-0.448,0.672l1.143,5.713c0.048,0.239,0.242,0.422,0.485,0.455c0.248,0.034,0.479-0.094,0.587-0.312
	L16,16.134l1.203,2.407c0.097,0.195,0.296,0.314,0.511,0.314c0.024,0,0.05,0,0.073-0.006c0.242-0.031,0.438-0.215,0.484-0.453
	l1.144-5.714C19.477,12.372,19.277,12.072,18.967,12.011L18.967,12.011z"/>
<path class="st1" d="M28.109,12.011c-0.312-0.063-0.609,0.138-0.672,0.448l-0.815,4.081l-0.97-1.939
	c-0.193-0.387-0.828-0.387-1.022,0l-0.969,1.939l-0.815-4.081c-0.063-0.309-0.359-0.511-0.673-0.448
	c-0.31,0.063-0.51,0.362-0.448,0.672l1.144,5.713c0.048,0.239,0.241,0.422,0.485,0.455c0.244,0.034,0.478-0.094,0.586-0.312
	l1.203-2.406l1.203,2.407c0.098,0.195,0.297,0.314,0.512,0.314c0.024,0,0.05,0,0.072-0.006c0.242-0.031,0.438-0.215,0.485-0.453
	l1.144-5.714C28.62,12.372,28.42,12.072,28.109,12.011L28.109,12.011z"/>
<path class="st0" d="M27.637,21.441c-2.021,4.155-6.283,7.02-11.214,7.02c-4.931,0-9.193-2.865-11.213-7.021 M5.803,9.479
	c2.193-3.564,6.129-5.94,10.62-5.94c4.492,0,8.43,2.377,10.624,5.943 M22.649,21.44c-1.107,4.156-3.442,7.021-6.144,7.021
	s-5.036-2.867-6.143-7.025 M10.689,9.479c1.201-3.564,3.357-5.941,5.817-5.941c2.461,0,4.618,2.377,5.819,5.943"/>
<polygon class="st0" points="31.547,9.479 27.042,9.479 22.325,9.479 10.689,9.479 5.803,9.479 2.015,9.479 0.485,9.479 
	0.485,11.009 0.485,21.44 5.209,21.44 10.365,21.44 22.648,21.44 27.635,21.44 31.547,21.44 "/>
<path class="st0" d="M9.781,12.594l-1.156,5.75l-1.77-2.916l-1.646,2.916L4,12.594 M13.161,12.625l1.209,5.75l1.646-2.915
	l1.769,2.915l1.156-5.75 M22.251,12.594l1.21,5.75l1.646-2.915l1.769,2.915l1.156-5.75"/>
</svg>
