<!-- Generated by IcoMoon.io -->
<svg version="1.1" xmlns="http://www.w3.org/2000/svg" width="32" height="32" viewBox="0 0 32 32">
<title>domain</title>
<path d="M9.824 12.011c-0.314-0.064-0.61 0.138-0.672 0.448l-0.816 4.081-0.969-1.939c-0.194-0.387-0.829-0.387-1.023 0l-0.969 1.939-0.816-4.081c-0.061-0.309-0.36-0.511-0.672-0.448-0.309 0.062-0.51 0.362-0.448 0.672l1.143 5.714c0.048 0.239 0.242 0.422 0.485 0.454 0.246 0.035 0.479-0.093 0.587-0.311l1.203-2.406 1.203 2.407c0.097 0.195 0.296 0.315 0.511 0.315 0.025 0 0.050-0.001 0.073-0.006 0.242-0.032 0.437-0.215 0.485-0.454l1.143-5.714c0.062-0.31-0.138-0.61-0.448-0.672z"></path>
<path d="M18.967 12.011c-0.313-0.064-0.61 0.138-0.672 0.448l-0.816 4.081-0.969-1.939c-0.194-0.387-0.829-0.387-1.023 0l-0.969 1.939-0.816-4.081c-0.061-0.309-0.359-0.511-0.672-0.448-0.309 0.062-0.51 0.362-0.448 0.672l1.143 5.714c0.048 0.239 0.242 0.422 0.485 0.454 0.248 0.035 0.479-0.093 0.587-0.311l1.203-2.406 1.203 2.407c0.097 0.195 0.296 0.315 0.511 0.315 0.025 0 0.050-0.001 0.073-0.006 0.242-0.032 0.437-0.215 0.485-0.454l1.143-5.714c0.062-0.31-0.138-0.61-0.448-0.672z"></path>
<path d="M28.11 12.011c-0.312-0.064-0.61 0.138-0.672 0.448l-0.816 4.081-0.969-1.939c-0.194-0.387-0.829-0.387-1.023 0l-0.969 1.939-0.816-4.081c-0.062-0.309-0.358-0.511-0.672-0.448-0.309 0.062-0.51 0.362-0.448 0.672l1.143 5.714c0.048 0.239 0.242 0.422 0.485 0.454 0.245 0.035 0.478-0.093 0.587-0.311l1.203-2.406 1.203 2.407c0.097 0.195 0.296 0.315 0.511 0.315 0.025 0 0.050-0.001 0.073-0.006 0.242-0.032 0.437-0.215 0.485-0.454l1.143-5.714c0.062-0.31-0.138-0.61-0.448-0.672z"></path>
<path d="M29.143 8.571h-1.758c-2.461-3.577-6.471-5.714-10.814-5.714s-8.354 2.137-10.815 5.714h-2.899c-1.575 0-2.857 1.282-2.857 2.857v8c0 1.575 1.282 2.857 2.857 2.857h2.205c2.222 4.063 6.341 6.619 10.942 6.818 0.189 0.025 0.377 0.039 0.569 0.039s0.381-0.015 0.569-0.039c4.601-0.198 8.72-2.754 10.942-6.818h1.059c1.575 0 2.857-1.282 2.857-2.857v-8c0-1.575-1.282-2.857-2.857-2.857zM25.987 8.571h-3.29c-0.638-1.657-1.462-3.006-2.416-3.971 2.232 0.726 4.223 2.088 5.706 3.971zM11.662 8.571c1.080-2.589 2.648-4.206 4.338-4.509v4.509h-4.338zM17.143 4.063c1.691 0.302 3.258 1.919 4.339 4.509h-4.339v-4.509zM12.862 4.6c-0.954 0.966-1.779 2.314-2.417 3.971h-3.289c1.485-1.883 3.474-3.245 5.706-3.971zM6.359 22.286h3.687c0.661 2.17 1.631 3.912 2.792 5.097-2.664-0.872-4.971-2.643-6.479-5.097zM17.143 27.927v-5.641h4.761c-1.046 3.182-2.837 5.286-4.761 5.641zM16 27.927c-1.925-0.355-3.715-2.458-4.761-5.641h4.761v5.641zM20.304 27.383c1.161-1.185 2.131-2.928 2.793-5.097h3.687c-1.507 2.454-3.815 4.225-6.48 5.097zM30.857 19.429c0 0.945-0.769 1.714-1.714 1.714h-26.286c-0.945 0-1.714-0.769-1.714-1.714v-8c0-0.945 0.769-1.714 1.714-1.714h26.286c0.945 0 1.714 0.769 1.714 1.714v8z"></path>
</svg>
