<?xml version="1.0" encoding="utf-8"?>
<!-- Generator: Adobe Illustrator 16.0.0, SVG Export Plug-In . SVG Version: 6.00 Build 0)  -->
<!DOCTYPE svg PUBLIC "-//W3C//DTD SVG 1.1//EN" "http://www.w3.org/Graphics/SVG/1.1/DTD/svg11.dtd">
<svg version="1.1" id="图层_1" xmlns="http://www.w3.org/2000/svg" xmlns:xlink="http://www.w3.org/1999/xlink" x="0px" y="0px"
	 width="32px" height="32px" viewBox="0 0 32 32" style="enable-background:new 0 0 32 32;" xml:space="preserve">
<style type="text/css">
<![CDATA[
	.st0{fill:none;stroke:#000000;stroke-linecap:round;stroke-linejoin:round;stroke-miterlimit:10;}
	.st1{fill:none;stroke:#000000;stroke-miterlimit:10;}
	.st2{display:none;}
]]>
</style>
<title>email</title>
<path class="st2" d="M29.326,5.333H2.674C1.203,5.333,0.007,6.53,0.007,8v16c0,1.47,1.196,2.667,2.667,2.667h26.653
	c1.471,0,2.667-1.197,2.667-2.667V8C31.993,6.53,30.798,5.333,29.326,5.333z M30.926,24c0,0.882-0.718,1.6-1.6,1.6H2.674
	c-0.882,0-1.6-0.718-1.6-1.6V8c0-0.882,0.718-1.6,1.6-1.6h26.653c0.882,0,1.6,0.718,1.6,1.6L30.926,24z"/>
<path class="st2" d="M28.707,8.777c-0.16-0.247-0.493-0.317-0.736-0.157l-10.678,6.941c-0.863,0.591-2.269,0.591-3.132,0
	L4.028,8.628c-0.24-0.165-0.574-0.105-0.742,0.139C3.122,9.01,3.183,9.342,3.427,9.508l10.133,6.933
	c0.609,0.417,1.391,0.624,2.171,0.624c0.777,0,1.553-0.205,2.156-0.616l10.666-6.933c0.246-0.161,0.316-0.492,0.156-0.738H28.707z"
	/>
<path class="st2" d="M10.846,16.128l-7.467,6.399C3.155,22.72,3.128,23.057,3.32,23.28c0.108,0.124,0.256,0.187,0.405,0.187
	c0.123,0,0.246-0.043,0.347-0.129l7.467-6.4c0.224-0.191,0.251-0.528,0.059-0.751C11.405,15.962,11.069,15.936,10.846,16.128z"/>
<path class="st2" d="M21.141,16.128c-0.223-0.192-0.56-0.166-0.752,0.058c-0.191,0.224-0.166,0.56,0.059,0.751l7.467,6.4
	c0.1,0.086,0.225,0.129,0.346,0.129c0.15,0,0.299-0.063,0.405-0.187c0.19-0.224,0.165-0.561-0.06-0.753L21.141,16.128z"/>
<path class="st1" d="M0.445,9.523c0-1.657,1.419-3,3.167-3h24.736c1.749,0,3.167,1.343,3.167,3v12.952c0,1.656-1.418,3-3.167,3
	H3.612c-1.748,0-3.167-1.344-3.167-3V9.523z"/>
<path class="st0" d="M28.189,9.101c0,0-7.691,5.913-10.615,7.244c-0.328,0.149-1.053,0.275-1.412,0.274
	c-0.349-0.001-1.049-0.131-1.367-0.274c-3.02-1.351-11.07-7.244-11.07-7.244"/>
<path class="st0" d="M11.105,16.618l-7.381,6.423 M20.945,16.618l7.244,6.423"/>
</svg>
