<!-- Generated by IcoMoon.io -->
<svg version="1.1" xmlns="http://www.w3.org/2000/svg" width="32" height="32" viewBox="0 0 32 32">
<title>email</title>
<path d="M29.326 5.333h-26.652c-1.471 0-2.667 1.197-2.667 2.667v16c0 1.47 1.196 2.667 2.667 2.667h26.653c1.471 0 2.667-1.197 2.667-2.667v-16c-0.001-1.47-1.196-2.667-2.668-2.667zM30.926 24c0 0.882-0.718 1.6-1.6 1.6h-26.652c-0.882 0-1.6-0.718-1.6-1.6v-16c0-0.882 0.718-1.6 1.6-1.6h26.653c0.882 0 1.6 0.718 1.6 1.6l-0.001 16z"></path>
<path d="M28.707 8.777c-0.16-0.247-0.493-0.317-0.737-0.157l-10.677 6.941c-0.863 0.591-2.269 0.591-3.132 0l-10.133-6.933c-0.24-0.165-0.574-0.105-0.742 0.139-0.164 0.243-0.103 0.575 0.141 0.741l10.133 6.933c0.609 0.416 1.391 0.624 2.171 0.624 0.777 0 1.553-0.206 2.155-0.617l10.667-6.933c0.246-0.161 0.316-0.492 0.156-0.738z"></path>
<path d="M10.846 16.128l-7.467 6.4c-0.224 0.192-0.251 0.529-0.059 0.752 0.108 0.124 0.256 0.187 0.405 0.187 0.123 0 0.246-0.043 0.347-0.129l7.467-6.4c0.224-0.192 0.251-0.529 0.059-0.752-0.193-0.224-0.529-0.25-0.752-0.058z"></path>
<path d="M21.14 16.128c-0.222-0.192-0.559-0.166-0.752 0.058-0.191 0.224-0.165 0.56 0.059 0.752l7.467 6.4c0.099 0.086 0.224 0.129 0.346 0.129 0.15 0 0.299-0.063 0.405-0.187 0.191-0.224 0.165-0.56-0.059-0.752l-7.466-6.4z"></path>
</svg>
