<!-- Generated by IcoMoon.io -->
<svg version="1.1" xmlns="http://www.w3.org/2000/svg" width="32" height="32" viewBox="0 0 32 32">
<title>fast</title>
<path d="M31.467 28.8h-28.267v-28.267c0-0.294-0.239-0.533-0.533-0.533s-0.533 0.239-0.533 0.533v28.267h-1.6c-0.294 0-0.533 0.239-0.533 0.533s0.239 0.533 0.533 0.533h1.6v1.6c0 0.294 0.239 0.533 0.533 0.533s0.533-0.239 0.533-0.533v-1.6h28.267c0.294 0 0.533-0.239 0.533-0.533s-0.239-0.533-0.533-0.533z"></path>
<path d="M31.467 5.333h-6.4c-0.215 0-0.411 0.13-0.493 0.33-0.083 0.199-0.037 0.429 0.115 0.581l2.56 2.56-6.531 7.034-2.822-1.882c-0.21-0.141-0.494-0.113-0.673 0.067l-10.667 10.667c-0.208 0.208-0.208 0.546 0 0.754 0.105 0.103 0.241 0.156 0.378 0.156s0.273-0.052 0.377-0.155l10.357-10.357 2.836 1.89c0.22 0.146 0.509 0.112 0.687-0.081l6.814-7.338 3.085 3.085c0.102 0.101 0.239 0.156 0.378 0.156 0.068 0 0.138-0.013 0.204-0.041 0.199-0.082 0.33-0.277 0.33-0.493v-6.4c0-0.294-0.239-0.533-0.533-0.533zM30.933 10.979l-4.579-4.579h4.579v4.579z"></path>
</svg>
