<svg version="1.1" xmlns="http://www.w3.org/2000/svg" width="32px" height="32px" viewBox="0 0 32 32">
<style type="text/css">
<![CDATA[
	.st0{fill:none;stroke:#020202;stroke-linecap:round;stroke-linejoin:round;}
	.st1{fill:none;stroke:#020202;stroke-linecap:round;}
	.st2{display:none;}
]]>
</style>
<title>fast</title>
<path class="st2" d="M31.467,28.8H3.2V0.533C3.2,0.239,2.961,0,2.667,0S2.134,0.239,2.134,0.533V28.8h-1.6
	c-0.294,0-0.533,0.239-0.533,0.533s0.239,0.533,0.533,0.533h1.6v1.6c0,0.294,0.239,0.533,0.533,0.533S3.2,31.76,3.2,31.466v-1.6
	h28.267c0.295,0,0.533-0.239,0.533-0.533S31.762,28.8,31.467,28.8z"/>
<path class="st2" d="M31.467,5.333h-6.4c-0.215,0-0.409,0.13-0.491,0.33c-0.083,0.199-0.037,0.429,0.114,0.581l2.561,2.56
	l-6.531,7.034l-2.82-1.882c-0.211-0.141-0.494-0.113-0.674,0.067L6.556,24.689c-0.208,0.209-0.208,0.547,0,0.754
	C6.661,25.547,6.797,25.6,6.934,25.6c0.137,0,0.273-0.052,0.377-0.154l10.357-10.356l2.836,1.892c0.221,0.146,0.51,0.11,0.688-0.082
	l6.813-7.337l3.085,3.085c0.102,0.101,0.239,0.156,0.378,0.156c0.068,0,0.138-0.013,0.204-0.041c0.199-0.082,0.33-0.277,0.33-0.493
	v-6.4c0-0.294-0.238-0.533-0.533-0.533h-0.002V5.333z M30.934,10.979L26.354,6.4h4.58V10.979z"/>
<path class="st0" d="M7.118,25.029l10.541-10.5l2.716,2.221l7.285-7.471l3.625,3.596V5.904h-6.993l3.368,3.375"/>
<path class="st1" d="M2.708,0.546v15.422v15.485 M31.5,29.376H16.056H0.547"/>
</svg>
