<?xml version="1.0" encoding="utf-8"?>
<!-- Generator: Adobe Illustrator 16.0.0, SVG Export Plug-In . SVG Version: 6.00 Build 0)  -->
<!DOCTYPE svg PUBLIC "-//W3C//DTD SVG 1.1//EN" "http://www.w3.org/Graphics/SVG/1.1/DTD/svg11.dtd">
<svg version="1.1" id="图层_1" xmlns="http://www.w3.org/2000/svg" xmlns:xlink="http://www.w3.org/1999/xlink" x="0px" y="0px"
	 width="32px" height="32px" viewBox="0 0 32 32" enable-background="new 0 0 32 32" xml:space="preserve">
<title>multilingual</title>
<path display="none" d="M25.932,29.793h-7.173v-0.552c0-0.306-0.247-0.552-0.552-0.552h-0.553v-0.553
	c0-0.305-0.246-0.552-0.551-0.552h-0.553v-2.233c6.74-0.293,12.139-5.851,12.139-12.663c0-6.997-5.693-12.69-12.69-12.69
	s-12.69,5.693-12.69,12.69c0,6.81,5.398,12.37,12.138,12.663v2.233h-0.552c-0.305,0-0.552,0.247-0.552,0.552v0.553h-0.552
	c-0.305,0-0.552,0.246-0.552,0.552v0.552H6.067c-0.305,0-0.552,0.247-0.552,0.552c0,0.306,0.247,0.552,0.552,0.552h7.172v0.553
	c0,0.305,0.247,0.552,0.552,0.552h4.414c0.305,0,0.552-0.247,0.552-0.552v-0.553h7.173c0.305,0,0.551-0.246,0.551-0.552
	c0-0.305-0.246-0.552-0.551-0.552H25.932z M4.441,13.241h4.402c0.046,2.003,0.335,3.875,0.831,5.517H6.15
	C5.148,17.139,4.538,15.258,4.441,13.241L4.441,13.241z M6.15,6.621h3.524c-0.495,1.642-0.785,3.515-0.831,5.517H4.441
	C4.537,10.121,5.147,8.241,6.15,6.621L6.15,6.621z M27.559,12.138h-4.401c-0.046-2.003-0.335-3.875-0.831-5.517h3.523
	C26.852,8.241,27.462,10.121,27.559,12.138L27.559,12.138z M25.85,18.759h-3.523c0.494-1.642,0.785-3.514,0.831-5.517h4.401
	c-0.096,2.017-0.705,3.896-1.707,5.517H25.85z M16.552,24.221v-4.359h4.171C19.709,22.266,18.217,23.918,16.552,24.221z
	 M16.552,18.759v-5.517h5.503c-0.053,2.003-0.385,3.887-0.923,5.517H16.552L16.552,18.759z M22.053,12.138h-5.502V6.621h4.579
	C21.67,8.251,22.001,10.136,22.053,12.138L22.053,12.138z M16.552,5.517V1.158c1.665,0.302,3.157,1.954,4.171,4.359H16.552z
	 M15.448,1.159v4.359h-4.17C12.291,3.114,13.783,1.462,15.448,1.159z M15.448,6.621v5.517H9.946
	c0.052-2.003,0.384-3.887,0.922-5.517h4.579H15.448z M9.947,13.241h5.502v5.517H10.87c-0.54-1.63-0.871-3.514-0.922-5.517H9.947z
	 M15.448,19.861v4.359c-1.665-0.302-3.157-1.953-4.17-4.359H15.448z M19.613,23.691c0.937-0.949,1.736-2.254,2.338-3.83h3.132
	C23.688,21.625,21.795,22.975,19.613,23.691z M25.082,5.517H21.95c-0.601-1.576-1.401-2.88-2.339-3.829
	C21.794,2.405,23.686,3.754,25.082,5.517z M12.387,1.688c-0.937,0.949-1.737,2.253-2.338,3.829H6.917
	C8.313,3.754,10.205,2.405,12.387,1.688z M6.918,19.861h3.132c0.6,1.576,1.401,2.881,2.338,3.83
	C10.206,22.975,8.314,21.625,6.918,19.861z M17.654,30.896h-3.309v-1.104h0.552c0.305,0,0.552-0.247,0.552-0.552v-0.552h1.103v0.552
	c0,0.305,0.247,0.552,0.552,0.552h0.553v1.104H17.654z"/>
<path display="none" fill="none" stroke="#000000" stroke-miterlimit="10" d="M3.778,12.635c0,6.632,5.402,12.235,12.083,12.235"/>
<path display="none" fill="none" stroke="#000000" stroke-miterlimit="10" d="M3.785,12.953C3.785,6.21,9.171,0.49,15.914,0.49"/>
<path id="circle" fill="none" stroke="#000000" stroke-miterlimit="10" d="M28.021,12.698c0,6.68-5.416,12.096-12.096,12.096
	c-6.68,0-12.095-5.416-12.095-12.096c0-6.68,5.416-12.095,12.095-12.095C22.604,0.603,28.021,6.018,28.021,12.698z"/>
<path id="circlei" fill="none" stroke="#000000" stroke-miterlimit="10" d="M22.632,12.698c0,6.68-2.967,12.096-6.626,12.096
	c-3.658,0-6.625-5.416-6.625-12.096c0-6.68,2.966-12.095,6.625-12.095C19.665,0.603,22.632,6.018,22.632,12.698z"/>
<path fill="none" stroke="#000000" stroke-linecap="square" stroke-miterlimit="10" d="M6.38,6.041h9.626"/>
<path fill="none" stroke="#000000" stroke-linecap="square" stroke-miterlimit="10" d="M3.829,12.698h12.347"/>
<path fill="none" stroke="#000000" stroke-linecap="square" stroke-miterlimit="10" d="M6.38,19.041h9.626"/>
<path fill="none" stroke="#000000" stroke-linecap="square" stroke-miterlimit="10" d="M25.746,6.041h-9.739"/>
<path fill="none" stroke="#000000" stroke-linecap="square" stroke-miterlimit="10" d="M28.021,12.698H16.176"/>
<path fill="none" stroke="#000000" stroke-linecap="square" stroke-miterlimit="10" d="M25.747,19.041h-9.739"/>
<path fill="none" stroke="#000000" stroke-linejoin="round" stroke-miterlimit="10" d="M15.924,0.604v28.086"/>
<path fill="none" stroke="#000000" stroke-linejoin="round" stroke-miterlimit="10" d="M15.925,28.237h-1.076V29.2h-1.076v2.151
	h4.303v-2.095h-1.02L17,28.237H15.925z"/>
<path fill="none" stroke="#000000" stroke-linecap="round" stroke-miterlimit="10" d="M13.458,30.276H6.023"/>
<path fill="none" stroke="#000000" stroke-linecap="round" stroke-miterlimit="10" d="M18.379,30.274h7.436"/>
</svg>
