<!-- Generated by IcoMoon.io -->
<svg version="1.1" xmlns="http://www.w3.org/2000/svg" width="32" height="32" viewBox="0 0 32 32">
<title>multilingual</title>
<path d="M25.931 29.793h-7.172v-0.552c0-0.305-0.247-0.552-0.552-0.552h-0.552v-0.552c0-0.305-0.247-0.552-0.552-0.552h-0.552v-2.234c6.74-0.292 12.138-5.85 12.138-12.662 0-6.997-5.693-12.69-12.69-12.69s-12.69 5.693-12.69 12.69c0 6.81 5.398 12.37 12.138 12.662v2.234h-0.552c-0.305 0-0.552 0.247-0.552 0.552v0.552h-0.552c-0.305 0-0.552 0.247-0.552 0.552v0.552h-7.172c-0.305 0-0.552 0.247-0.552 0.552s0.247 0.552 0.552 0.552h7.172v0.552c0 0.305 0.247 0.552 0.552 0.552h4.414c0.305 0 0.552-0.247 0.552-0.552v-0.552h7.172c0.305 0 0.552-0.247 0.552-0.552s-0.247-0.552-0.552-0.552zM4.441 13.241h4.402c0.046 2.003 0.335 3.875 0.831 5.517h-3.524c-1.002-1.62-1.612-3.5-1.708-5.517zM6.15 6.621h3.524c-0.495 1.642-0.785 3.515-0.831 5.517h-4.402c0.096-2.017 0.706-3.897 1.708-5.517zM27.559 12.138h-4.402c-0.046-2.003-0.335-3.875-0.831-5.517h3.524c1.002 1.62 1.612 3.5 1.708 5.517zM25.85 18.759h-3.524c0.495-1.642 0.785-3.514 0.831-5.517h4.402c-0.096 2.017-0.706 3.897-1.708 5.517zM16.552 24.221v-4.359h4.17c-1.013 2.404-2.505 4.056-4.17 4.359zM16.552 18.759v-5.517h5.502c-0.052 2.003-0.384 3.887-0.922 5.517h-4.579zM22.053 12.138h-5.502v-5.517h4.579c0.54 1.63 0.871 3.515 0.922 5.517zM16.552 5.517v-4.359c1.665 0.302 3.157 1.954 4.17 4.359h-4.17zM15.448 1.159v4.359h-4.17c1.013-2.404 2.505-4.056 4.17-4.359zM15.448 6.621v5.517h-5.502c0.052-2.003 0.384-3.887 0.922-5.517h4.579zM9.947 13.241h5.502v5.517h-4.579c-0.54-1.63-0.871-3.514-0.922-5.517zM15.448 19.862v4.359c-1.665-0.302-3.157-1.954-4.17-4.359h4.17zM19.613 23.691c0.937-0.949 1.737-2.253 2.338-3.829h3.132c-1.396 1.763-3.288 3.112-5.47 3.829zM25.082 5.517h-3.132c-0.6-1.576-1.401-2.88-2.338-3.829 2.182 0.717 4.074 2.066 5.47 3.829zM12.387 1.688c-0.937 0.949-1.737 2.253-2.338 3.829h-3.132c1.396-1.763 3.288-3.112 5.47-3.829zM6.918 19.862h3.132c0.6 1.576 1.401 2.88 2.338 3.829-2.182-0.717-4.074-2.066-5.47-3.829zM17.655 30.896h-3.31v-1.103h0.552c0.305 0 0.552-0.247 0.552-0.552v-0.552h1.103v0.552c0 0.305 0.247 0.552 0.552 0.552h0.552v1.103z"></path>
</svg>
