<!-- Generated by IcoMoon.io -->
<svg version="1.1" xmlns="http://www.w3.org/2000/svg" width="32" height="32" viewBox="0 0 32 32">
<title>platform</title>
<path d="M24.532 11.2c-0.572 0-1.142 0.067-1.701 0.197-1.694-3.375-5.119-5.531-8.847-5.531-4.883 0-9.041 3.634-9.812 8.511-2.474 0.773-4.171 3.083-4.171 5.738 0 3.319 2.652 6.019 5.913 6.019h18.829c0.064 0 0.123-0.007 0.177-0.019 3.97-0.204 7.081-3.475 7.081-7.447-0.001-4.117-3.35-7.468-7.468-7.468zM24.864 25.051c-0.010 0-0.113 0.016-0.123 0.017h-18.829c-2.672 0-4.846-2.222-4.846-4.953 0-2.288 1.526-4.261 3.711-4.8 0.214-0.053 0.374-0.234 0.401-0.453 0.556-4.521 4.34-7.929 8.803-7.929 3.458 0 6.625 2.085 8.069 5.313 0.11 0.244 0.387 0.371 0.64 0.292 0.602-0.18 1.221-0.272 1.841-0.272 3.53 0 6.4 2.87 6.4 6.4 0 3.404-2.665 6.207-6.068 6.384z"></path>
</svg>
