<?xml version="1.0" encoding="utf-8"?>
<!-- Generator: Adobe Illustrator 16.0.0, SVG Export Plug-In . SVG Version: 6.00 Build 0)  -->
<!DOCTYPE svg PUBLIC "-//W3C//DTD SVG 1.1//EN" "http://www.w3.org/Graphics/SVG/1.1/DTD/svg11.dtd">
<svg version="1.1" id="图层_1" xmlns="http://www.w3.org/2000/svg" xmlns:xlink="http://www.w3.org/1999/xlink" x="0px" y="0px"
	 width="32px" height="32px" viewBox="0 0 32 32" style="enable-background:new 0 0 32 32;" xml:space="preserve">
<style type="text/css">
<![CDATA[
	.st0{fill:none;stroke:#000000;stroke-miterlimit:10;}
]]>
</style>
<title>platform2</title>
<path class="st0" d="M28.556,1.145H3.403c-1.628,0-2.958,1.37-2.958,3.047v13.713h31.071V4.192
	C31.516,2.515,30.184,1.145,28.556,1.145z"/>
<path class="st0" d="M0.444,20.952c0,1.677,1.33,3.047,2.958,3.047h8.878v3.81H7.102c-0.813,0-1.48,0.687-1.48,1.523
	s0.666,1.523,1.48,1.523h17.756c0.813,0,1.48-0.687,1.48-1.523s-0.666-1.523-1.48-1.523h-5.177v-3.81h8.878
	c1.628,0,2.96-1.37,2.96-3.047V19.43H0.445L0.444,20.952L0.444,20.952z"/>
</svg>
