<?xml version="1.0" encoding="utf-8"?>
<!-- Generator: Adobe Illustrator 16.0.0, SVG Export Plug-In . SVG Version: 6.00 Build 0)  -->
<!DOCTYPE svg PUBLIC "-//W3C//DTD SVG 1.1//EN" "http://www.w3.org/Graphics/SVG/1.1/DTD/svg11.dtd">
<svg version="1.1" id="图层_1" xmlns="http://www.w3.org/2000/svg" xmlns:xlink="http://www.w3.org/1999/xlink" x="0px" y="0px"
	 width="32px" height="32px" viewBox="0 0 32 32" style="enable-background:new 0 0 32 32;" xml:space="preserve">
<style type="text/css">
<![CDATA[
	.st0{fill:none;stroke:#060001;stroke-linecap:round;stroke-miterlimit:10;}
	.st1{fill:none;stroke:#070102;stroke-linecap:round;stroke-linejoin:round;stroke-miterlimit:10;}
	.st2{fill:none;stroke:#040000;stroke-linecap:round;stroke-linejoin:round;stroke-miterlimit:10;}
	.st3{fill:none;stroke:#000000;stroke-linejoin:round;stroke-miterlimit:10;}
	.st4{fill:none;stroke:#000000;stroke-miterlimit:10;}
	.st5{display:none;}
]]>
</style>
<title>publish</title>
<path class="st5" d="M4.8,0C2.154,0,0,2.154,0,4.8c0,2.452,3.915,8.191,4.362,8.836c0.099,0.146,0.263,0.23,0.438,0.23
	c0.175,0,0.339-0.086,0.438-0.23C5.685,12.991,9.6,7.252,9.6,4.8C9.6,2.154,7.446,0,4.8,0z M4.8,12.379
	C3.458,10.35,1.067,6.401,1.067,4.8c0-2.059,1.675-3.733,3.733-3.733c2.058,0,3.733,1.675,3.733,3.733
	C8.533,6.4,6.142,10.349,4.8,12.379z"/>
<path class="st5" d="M26.133,12.8c-3.234,0-5.867,2.741-5.867,6.112c0,3.186,5.183,12.425,5.402,12.816
	C25.764,31.895,25.939,32,26.133,32c0.194,0,0.37-0.105,0.465-0.271C26.818,31.335,32,22.098,32,18.912
	C32,15.541,29.367,12.8,26.133,12.8z M26.133,30.364c-1.674-3.073-4.8-9.263-4.8-11.452c0-2.782,2.153-5.045,4.8-5.045
	s4.801,2.263,4.801,5.045C30.934,21.1,27.807,27.291,26.133,30.364z"/>
<path class="st5" d="M14.273,15.354c-0.387-0.718-0.851-1.309-1.417-1.809c-0.222-0.195-0.558-0.173-0.753,0.047
	c-0.195,0.221-0.174,0.558,0.047,0.753c0.469,0.415,0.857,0.911,1.183,1.516c0.096,0.179,0.279,0.281,0.469,0.281
	c0.086,0,0.174-0.021,0.254-0.064C14.315,15.937,14.412,15.614,14.273,15.354L14.273,15.354z"/>
<path class="st5" d="M10.887,12.369c-0.647-0.251-1.38-0.43-2.178-0.531c-0.291-0.041-0.56,0.169-0.597,0.462
	c-0.037,0.293,0.171,0.56,0.462,0.597c0.713,0.091,1.362,0.249,1.929,0.467c0.064,0.025,0.128,0.036,0.193,0.036
	c0.214,0,0.416-0.13,0.496-0.342C11.3,12.784,11.163,12.476,10.887,12.369L10.887,12.369z"/>
<path class="st5" d="M23.999,30.934c-0.733,0-1.417-0.049-2.032-0.144c-0.297-0.042-0.563,0.155-0.607,0.446
	c-0.043,0.291,0.156,0.563,0.445,0.606C22.475,31.947,23.213,32,24,32c0.294,0,0.532-0.239,0.532-0.533S24.293,30.934,23.999,30.934
	L23.999,30.934z"/>
<path class="st5" d="M20.05,30.275c-0.624-0.256-1.173-0.599-1.635-1.015c-0.22-0.198-0.556-0.179-0.753,0.038
	c-0.198,0.221-0.18,0.557,0.038,0.753c0.553,0.498,1.206,0.905,1.94,1.209c0.065,0.028,0.137,0.041,0.205,0.041
	c0.209,0,0.407-0.125,0.492-0.329C20.451,30.7,20.322,30.389,20.05,30.275z"/>
<path class="st5" d="M15.635,24.449c0.291-0.047,0.491-0.319,0.445-0.609c-0.109-0.691-0.194-1.396-0.279-2.101
	c-0.035-0.294-0.305-0.507-0.593-0.466c-0.293,0.035-0.501,0.301-0.466,0.593c0.085,0.718,0.173,1.436,0.284,2.139
	c0.042,0.263,0.269,0.451,0.526,0.451c0.028,0,0.055-0.002,0.084-0.006L15.635,24.449z"/>
<path class="st5" d="M16.503,25.869c-0.078-0.285-0.372-0.448-0.656-0.373c-0.285,0.079-0.451,0.371-0.373,0.656
	c0.22,0.796,0.487,1.479,0.819,2.093c0.095,0.178,0.277,0.278,0.469,0.278c0.086,0,0.172-0.021,0.254-0.063
	c0.258-0.14,0.355-0.464,0.215-0.724C16.938,27.197,16.7,26.586,16.503,25.869z"/>
<path class="st5" d="M15.075,20.21c0.29-0.045,0.491-0.317,0.446-0.608c-0.129-0.844-0.268-1.525-0.437-2.148
	c-0.077-0.284-0.365-0.45-0.654-0.375c-0.285,0.077-0.452,0.367-0.375,0.652c0.159,0.584,0.29,1.229,0.413,2.033
	c0.041,0.264,0.268,0.452,0.526,0.452C15.021,20.216,15.047,20.214,15.075,20.21L15.075,20.21z"/>
<path class="st5" d="M4.563,2.899c-0.882,0-1.6,0.718-1.6,1.6s0.718,1.6,1.6,1.6s1.6-0.718,1.6-1.6S5.445,2.899,4.563,2.899z
	 M4.563,5.032c-0.293,0-0.533-0.24-0.533-0.533s0.24-0.533,0.533-0.533s0.533,0.24,0.533,0.533S4.856,5.032,4.563,5.032z"/>
<path class="st5" d="M26.133,16c-1.471,0-2.667,1.195-2.667,2.667s1.196,2.667,2.667,2.667s2.667-1.195,2.667-2.667
	S27.604,16,26.133,16z M26.133,20.268c-0.882,0-1.6-0.719-1.6-1.601s0.718-1.601,1.6-1.601c0.883,0,1.6,0.719,1.6,1.601
	S27.016,20.268,26.133,20.268z"/>
<path class="st4" d="M5.937,4.584c0,0.712-0.577,1.289-1.289,1.289S3.359,5.296,3.359,4.584s0.577-1.289,1.289-1.289
	S5.937,3.872,5.937,4.584z"/>
<path class="st3" d="M8.619,4.5c0,2.193-3.819,8.655-3.819,8.655S0.507,6.693,0.507,4.5c0-2.194,1.816-3.973,4.056-3.973
	C6.803,0.527,8.619,2.306,8.619,4.5z"/>
<path class="st2" d="M10.741,12.8l-0.375-0.074l-1.746-0.344"/>
<path class="st0" d="M12.458,13.958c0,0,0.694,0.58,0.875,0.818c0.151,0.199,0.458,0.89,0.458,0.89"/>
<path class="st1" d="M15,19.667l-0.458-2.084"/>
<path class="st1" d="M15.208,21.708L15.455,24"/>
<path class="st1" d="M16,25.962c0,0,0.285,0.778,0.375,1.039c0.097,0.281,0.375,1.128,0.375,1.128"/>
<path class="st1" d="M19.875,30.784c0,0-0.709-0.235-0.923-0.361c-0.254-0.149-0.91-0.75-0.91-0.75"/>
<path class="st1" d="M24.125,31.58c0,0-0.888,0.022-1.182,0c-0.302-0.022-1.193-0.178-1.193-0.178"/>
<path class="st3" d="M31.474,19.052c0,3.137-5.46,12.376-5.46,12.376s-6.139-9.239-6.139-12.376c0-3.135,2.597-5.681,5.801-5.681
	C28.878,13.371,31.474,15.917,31.474,19.052z"/>
<path class="st4" d="M27.638,19.172c0,1.019-0.826,1.843-1.843,1.843s-1.842-0.824-1.842-1.843c0-1.017,0.825-1.843,1.842-1.843
	S27.638,18.155,27.638,19.172z"/>
</svg>
