<!-- Generated by IcoMoon.io -->
<svg version="1.1" xmlns="http://www.w3.org/2000/svg" width="32" height="32" viewBox="0 0 32 32">
<title>publish</title>
<path d="M4.8 0c-2.646 0-4.8 2.154-4.8 4.8 0 2.452 3.915 8.191 4.362 8.836 0.099 0.144 0.263 0.23 0.438 0.23s0.339-0.086 0.438-0.23c0.447-0.645 4.362-6.384 4.362-8.836 0-2.646-2.154-4.8-4.8-4.8zM4.8 12.379c-1.342-2.029-3.733-5.978-3.733-7.579 0-2.059 1.675-3.733 3.733-3.733s3.733 1.675 3.733 3.733c0 1.6-2.391 5.549-3.733 7.579z"></path>
<path d="M26.133 12.8c-3.234 0-5.867 2.741-5.867 6.112 0 3.186 5.181 12.425 5.402 12.816 0.095 0.167 0.272 0.272 0.465 0.272s0.37-0.105 0.465-0.272c0.221-0.393 5.402-9.631 5.402-12.816 0-3.371-2.633-6.112-5.867-6.112zM26.133 30.364c-1.674-3.073-4.8-9.262-4.8-11.452 0-2.782 2.154-5.045 4.8-5.045s4.8 2.263 4.8 5.045c0 2.188-3.126 8.379-4.8 11.452z"></path>
<path d="M14.273 15.354c-0.387-0.718-0.851-1.309-1.417-1.809-0.222-0.195-0.558-0.173-0.753 0.047-0.195 0.221-0.174 0.558 0.047 0.753 0.469 0.415 0.857 0.911 1.183 1.516 0.096 0.179 0.279 0.281 0.469 0.281 0.086 0 0.174-0.021 0.254-0.064 0.259-0.141 0.356-0.464 0.217-0.723z"></path>
<path d="M10.887 12.369c-0.647-0.251-1.38-0.43-2.178-0.531-0.291-0.041-0.56 0.169-0.597 0.462s0.171 0.56 0.462 0.597c0.713 0.091 1.362 0.249 1.929 0.467 0.064 0.025 0.128 0.036 0.193 0.036 0.214 0 0.416-0.13 0.496-0.342 0.108-0.274-0.029-0.582-0.304-0.689z"></path>
<path d="M23.999 30.933c-0.733 0-1.417-0.048-2.032-0.143-0.297-0.042-0.563 0.156-0.608 0.446-0.045 0.291 0.156 0.563 0.446 0.608 0.67 0.103 1.408 0.156 2.195 0.156 0.294 0 0.532-0.239 0.532-0.533s-0.239-0.533-0.533-0.533z"></path>
<path d="M20.050 30.276c-0.624-0.257-1.173-0.598-1.635-1.014-0.219-0.199-0.556-0.179-0.753 0.038-0.198 0.22-0.18 0.556 0.038 0.753 0.553 0.498 1.206 0.905 1.941 1.209 0.066 0.028 0.137 0.041 0.204 0.041 0.21 0 0.409-0.125 0.494-0.33 0.112-0.273-0.017-0.585-0.289-0.697z"></path>
<path d="M15.635 24.449c0.291-0.046 0.491-0.319 0.445-0.609-0.109-0.691-0.194-1.396-0.279-2.101-0.035-0.294-0.305-0.507-0.593-0.466-0.293 0.035-0.501 0.301-0.466 0.593 0.085 0.718 0.173 1.436 0.284 2.139 0.042 0.263 0.269 0.451 0.526 0.451 0.028 0 0.055-0.002 0.084-0.006z"></path>
<path d="M16.503 25.869c-0.078-0.285-0.372-0.448-0.656-0.373-0.285 0.079-0.451 0.371-0.373 0.656 0.22 0.796 0.487 1.481 0.819 2.093 0.095 0.178 0.278 0.279 0.468 0.279 0.086 0 0.173-0.020 0.255-0.064 0.258-0.14 0.355-0.464 0.214-0.723-0.292-0.54-0.53-1.151-0.727-1.868z"></path>
<path d="M15.075 20.21c0.29-0.045 0.491-0.317 0.446-0.608-0.129-0.844-0.268-1.527-0.437-2.15-0.077-0.284-0.365-0.45-0.654-0.375-0.285 0.077-0.452 0.369-0.375 0.654 0.159 0.583 0.29 1.229 0.413 2.033 0.041 0.263 0.268 0.452 0.526 0.452 0.027 0 0.053-0.002 0.082-0.005z"></path>
<path d="M4.8 3.2c-0.882 0-1.6 0.718-1.6 1.6s0.718 1.6 1.6 1.6 1.6-0.718 1.6-1.6-0.718-1.6-1.6-1.6zM4.8 5.333c-0.293 0-0.533-0.24-0.533-0.533s0.24-0.533 0.533-0.533 0.533 0.24 0.533 0.533-0.24 0.533-0.533 0.533z"></path>
<path d="M26.133 16c-1.471 0-2.667 1.196-2.667 2.667s1.196 2.667 2.667 2.667 2.667-1.196 2.667-2.667-1.196-2.667-2.667-2.667zM26.133 20.267c-0.882 0-1.6-0.718-1.6-1.6s0.718-1.6 1.6-1.6 1.6 0.718 1.6 1.6-0.718 1.6-1.6 1.6z"></path>
</svg>
