<!-- Generated by IcoMoon.io -->
<svg version="1.1" xmlns="http://www.w3.org/2000/svg" width="32" height="32" viewBox="0 0 32 32">
<title>reliability</title>
<path d="M23.962 2.853c0.956 1.425 0.533 2.174 0.070 2.655l-0.682 0.667c-0.096 0.094-0.154 0.221-0.16 0.355l-0.166 3.337c-0.007 0.145 0.045 0.285 0.144 0.391 0.099 0.105 0.237 0.165 0.382 0.167 0.243 0.003 0.474 0.108 0.629 0.287 0.148 0.171 0.213 0.386 0.186 0.607l-0.341 2.667c-0.050 0.401-0.405 0.703-0.891 0.703-0.258 0-0.48 0.186-0.525 0.441-0.138 0.777-0.66 1.646-0.666 1.655-0.153 0.253-0.071 0.579 0.18 0.733 0.251 0.151 0.578 0.070 0.732-0.179 0.022-0.037 0.475-0.787 0.709-1.617 0.789-0.153 1.415-0.789 1.519-1.6l0.341-2.667c0.066-0.521-0.094-1.045-0.439-1.443-0.233-0.268-0.537-0.462-0.871-0.566l0.132-2.654 0.544-0.532c0.736-0.766 1.344-2.081 0.059-4-0.995-1.485-2.69-2.237-5.040-2.237-0.145 0-0.294-0.004-0.448-0.009-1.070-0.028-2.399-0.063-4.062 1.049-4.613 0.083-6.765 1.78-6.765 5.331 0 0.623 0.092 2.186 0.143 3.008-0.389 0.087-0.745 0.297-1.011 0.598-0.351 0.4-0.514 0.93-0.447 1.454l0.34 2.667c0.108 0.847 0.786 1.505 1.626 1.618 0.266 1.863 1.187 3.699 2.538 5.039l-0.512 2.003-5.311 1.298c-3.363 0.821-5.899 3.995-5.899 7.382 0 0.294 0.239 0.533 0.533 0.533h17.067c0.294 0 0.534-0.239 0.534-0.533s-0.239-0.533-0.533-0.533h-16.508c0.255-2.668 2.385-5.161 5.059-5.813l5.622-1.374c0.191-0.047 0.341-0.194 0.39-0.385l0.669-2.614c0.049-0.191-0.011-0.393-0.156-0.525-1.403-1.286-2.33-3.169-2.482-5.037-0.023-0.276-0.255-0.49-0.532-0.49h-0.222c-0.419 0-0.773-0.302-0.825-0.703l-0.34-2.667c-0.029-0.224 0.038-0.442 0.19-0.613 0.158-0.18 0.389-0.284 0.634-0.284h0.141c0.147 0 0.289-0.061 0.389-0.169s0.153-0.252 0.143-0.4c-0.002-0.026-0.174-2.649-0.174-3.459 0-2.082 0.698-4.217 5.872-4.267 0.108-0.001 0.212-0.034 0.301-0.096 1.438-1.007 2.561-0.976 3.559-0.951 0.163 0.004 0.321 0.009 0.476 0.009 1.972 0 3.37 0.593 4.154 1.763z"></path>
<path d="M31.467 22.395h-0.533v-0.533c0-2.646-2.154-4.8-4.8-4.8s-4.8 2.154-4.8 4.8v0.533h-0.533c-0.294 0-0.533 0.239-0.533 0.533v8.533c0 0.294 0.239 0.533 0.533 0.533h10.667c0.294 0 0.533-0.239 0.533-0.533v-8.533c0-0.294-0.239-0.533-0.533-0.533zM22.4 21.861c0-2.059 1.675-3.733 3.733-3.733s3.733 1.675 3.733 3.733v0.533h-7.467v-0.533zM30.933 30.928h-9.6v-7.467h9.6v7.467z"></path>
<path d="M26.133 24.528c-0.882 0-1.6 0.718-1.6 1.6 0 0.694 0.447 1.281 1.067 1.502v0.631c0 0.294 0.239 0.533 0.533 0.533s0.533-0.239 0.533-0.533v-0.631c0.62-0.221 1.067-0.807 1.067-1.502 0-0.882-0.718-1.6-1.6-1.6z"></path>
</svg>
