<?xml version="1.0" encoding="utf-8"?>
<!-- Generator: Adobe Illustrator 16.0.0, SVG Export Plug-In . SVG Version: 6.00 Build 0)  -->
<!DOCTYPE svg PUBLIC "-//W3C//DTD SVG 1.1//EN" "http://www.w3.org/Graphics/SVG/1.1/DTD/svg11.dtd">
<svg version="1.1" id="图层_1" xmlns="http://www.w3.org/2000/svg" xmlns:xlink="http://www.w3.org/1999/xlink" x="0px" y="0px"
	 width="32px" height="32px" viewBox="0 0 32 32" style="enable-background:new 0 0 32 32;" xml:space="preserve">
<style type="text/css">
<![CDATA[
	.st0{fill:none;stroke:#000000;stroke-linecap:round;stroke-linejoin:round;stroke-miterlimit:10;}
	.st1{fill:none;stroke:#000000;stroke-miterlimit:10;}
	.st2{display:none;}
]]>
</style>
<title>reliability</title>
<path class="st2" d="M23.962,2.853c0.956,1.425,0.533,2.174,0.07,2.655L23.35,6.175c-0.096,0.094-0.154,0.221-0.16,0.355
	l-0.166,3.337c-0.006,0.145,0.045,0.285,0.145,0.391c0.1,0.105,0.236,0.165,0.382,0.167c0.243,0.003,0.474,0.108,0.63,0.287
	c0.147,0.171,0.213,0.386,0.186,0.607l-0.342,2.667c-0.049,0.401-0.404,0.703-0.891,0.703c-0.258,0-0.48,0.186-0.525,0.441
	c-0.137,0.777-0.659,1.646-0.666,1.655c-0.152,0.253-0.07,0.579,0.181,0.732c0.251,0.151,0.578,0.07,0.731-0.179
	c0.022-0.037,0.476-0.787,0.709-1.617c0.789-0.153,1.416-0.789,1.52-1.6l0.341-2.667c0.065-0.521-0.094-1.045-0.438-1.443
	c-0.233-0.268-0.537-0.462-0.871-0.566l0.132-2.654l0.544-0.532c0.736-0.766,1.344-2.081,0.059-4
	c-0.994-1.485-2.689-2.237-5.039-2.237c-0.146,0-0.295-0.004-0.449-0.009c-1.069-0.028-2.398-0.063-4.062,1.049
	c-4.613,0.083-6.765,1.78-6.765,5.331c0,0.623,0.092,2.186,0.143,3.008C8.287,9.489,7.931,9.699,7.665,10
	c-0.351,0.4-0.514,0.93-0.447,1.454l0.34,2.667c0.108,0.847,0.786,1.505,1.626,1.618c0.266,1.862,1.187,3.698,2.538,5.038
	l-0.512,2.004l-5.311,1.298C2.536,24.9,0,28.074,0,31.461c0,0.294,0.239,0.533,0.533,0.533H17.6c0.295,0,0.534-0.239,0.534-0.533
	s-0.239-0.533-0.532-0.533H1.093c0.255-2.668,2.385-5.16,5.059-5.813l5.622-1.374c0.191-0.048,0.341-0.194,0.39-0.386l0.669-2.613
	c0.049-0.191-0.011-0.393-0.156-0.525c-1.403-1.285-2.33-3.169-2.482-5.037c-0.023-0.276-0.255-0.49-0.532-0.49H9.441
	c-0.419,0-0.773-0.302-0.825-0.703l-0.34-2.667c-0.029-0.224,0.038-0.442,0.19-0.613c0.158-0.18,0.389-0.284,0.634-0.284h0.141
	c0.147,0,0.289-0.061,0.389-0.169s0.153-0.252,0.143-0.4C9.771,9.828,9.599,7.205,9.599,6.395c0-2.082,0.698-4.217,5.872-4.267
	c0.108-0.001,0.212-0.034,0.301-0.096c1.438-1.007,2.561-0.976,3.559-0.951c0.163,0.004,0.321,0.009,0.476,0.009
	C21.779,1.09,23.177,1.683,23.962,2.853L23.962,2.853z"/>
<path class="st2" d="M31.467,22.395h-0.533v-0.533c0-2.646-2.154-4.799-4.8-4.799s-4.8,2.153-4.8,4.799v0.533h-0.533
	c-0.294,0-0.533,0.239-0.533,0.533v8.533c0,0.294,0.239,0.533,0.533,0.533h10.667c0.294,0,0.533-0.239,0.533-0.533v-8.533
	C32.001,22.634,31.762,22.395,31.467,22.395L31.467,22.395z M22.4,21.861c0-2.06,1.675-3.733,3.732-3.733
	c2.059,0,3.733,1.675,3.733,3.733v0.533h-7.468v-0.533H22.4z M30.934,30.928h-9.601v-7.467h9.601V30.928z"/>
<path class="st0" d="M22.358,17.063c0,0,0.545-1.329,0.865-1.675c0.191-0.207,0.957-0.592,0.957-0.592s1.141-2.97,0.819-3.918
	c-0.14-0.413-1.32-1.139-1.32-1.139s-0.249-2.331,0-3.052C23.854,6.18,24.799,5.497,25,5c0.12-0.295,0.094-0.971,0-1.276
	c-0.185-0.601-0.869-1.703-1.32-2.141c-0.312-0.302-1.084-0.755-1.504-0.866c-0.74-0.195-3.053-0.228-3.053-0.228
	s-1.343,0.113-1.776,0.228c-0.523,0.138-2.004,0.82-2.004,0.82s-1.921,0.089-2.544,0.228c-0.522,0.116-1.578,0.416-2.012,0.729
	c-0.425,0.308-1.158,1.113-1.367,1.595C9.199,4.6,9.02,5.72,9.01,6.276C8.995,7.155,9.283,9.784,9.283,9.784
	s-1.139,0.257-1.367,0.546c-0.243,0.307-0.267,1.16-0.228,1.549c0.061,0.6,0.215,1.816,0.456,2.369
	c0.104,0.24,0.373,0.722,0.592,0.866c0.227,0.149,1.048,0.273,1.048,0.273s0.192,1.268,0.319,1.675
	c0.159,0.514,0.575,1.517,0.866,1.97c0.271,0.423,1.275,1.549,1.275,1.549l-0.729,2.688c0,0-4.013,0.885-5.33,1.259
	c-0.553,0.157-1.645,0.548-2.141,0.837C3.6,25.624,2.786,26.272,2.449,26.66c-0.375,0.431-1.049,1.369-1.276,1.894
	c-0.295,0.683-0.689,2.943-0.689,2.943h16.969"/>
<path class="st0" d="M30.422,22.996c0,0,0.029-1.095,0-1.458c-0.014-0.172-0.082-0.512-0.125-0.679
	c-0.046-0.182-0.175-0.532-0.25-0.703c-0.077-0.176-0.27-0.511-0.375-0.672c-0.115-0.177-0.386-0.504-0.531-0.656
	c-0.134-0.141-0.435-0.389-0.594-0.5c-0.189-0.132-0.604-0.343-0.814-0.438c-0.146-0.066-0.451-0.168-0.607-0.203
	c-0.243-0.055-0.741-0.091-0.99-0.094c-0.266-0.003-0.795,0.058-1.055,0.109c-0.194,0.039-0.571,0.171-0.752,0.25
	c-0.183,0.08-0.525,0.29-0.688,0.406c-0.148,0.105-0.417,0.355-0.547,0.484c-0.146,0.145-0.414,0.457-0.531,0.625
	c-0.134,0.191-0.346,0.61-0.438,0.826c-0.079,0.188-0.138,0.364-0.165,0.565c-0.014,0.101-0.054,0.68-0.054,0.68l0.004,1.456h-1.145
	v8.501H31.5V23L30.422,22.996h-8.703"/>
<path class="st1" d="M26.133,24.527c-0.882,0-1.6,0.719-1.6,1.601c0,0.694,0.447,1.281,1.066,1.502v0.631
	c0,0.294,0.239,0.533,0.533,0.533s0.533-0.239,0.533-0.533V27.63c0.62-0.221,1.066-0.807,1.066-1.502
	C27.732,25.246,27.016,24.527,26.133,24.527z"/>
</svg>
