<!-- Generated by IcoMoon.io -->
<svg version="1.1" xmlns="http://www.w3.org/2000/svg" width="1024" height="1024" viewBox="0 0 1024 1024">
<title>u4</title>
<path fill="#ff6d4d" d="M632.761 960.625c-162.887-27.85-343.488-21.639-523.947-19.822-57.794 0.614-107.723-18.455-107.451-81.546 0.279-64.854 38.732-112.442 111.068-102.951 265.258 34.817 530.071-15.122 795.294-1.518 73.494 3.785 110.416 36.598 111.773 102.598 1.336 64.797-47.564 81.204-105.221 83.762-88.378 3.949-176.541 11.975-281.516 19.478zM920.95 264.971c64.481-2.079 95.133-39.002 98.81-94.546 4.24-63.757-39.319-87.016-98.439-90.594-271.811-16.458-543.451 34.367-815.515 0.643-57.26-7.094-105.281 23.047-104.523 84.828 0.732 59.863 34.961 100.545 104.188 99.399 183.802-2.991 367.711-6.673 529.901 19.524 109.052-7.681 197.225-16.434 285.579-19.261zM933.406 592.858c55.886-1.201 85.1-26.943 86.727-78.003 1.788-56.526-29.268-84.219-89.023-87.259-279.278-14.328-558.417 34.41-837.758 0.695-58.807-7.094-93.352 27.901-92.755 83.201 0.599 55.652 35.748 82.109 95.005 81.204 187.58-2.907 375.412-8.052 537.767 18.992 116.252-7.739 208.049-16.886 300.037-18.838z"></path>
<path fill="#f9f9f9" d="M653.993 900.335c-176.363-19.524-353.203-27.316-530.687-21.584-23.129 0.748-62.585 11.813-58.552-33.108 2.837-31.744 34.095-30.543 57.024-28.038 255.043 28.199 509.97-14.86 764.943-0.476 23.798 1.355 57.007-1.925 59.943 25.687 4.031 37.88-32.81 34.121-58.607 36.79-77.813 7.997-154.859 25.956-234.063 20.722zM843.452 139.858c-237.129-11.152-474.078 28.969-711.334 2.132-23.194-2.637-63.461-14.966-66.787 23.745-4.084 47.59 40.032 37.346 67.266 36.975 152.907-1.925 305.225-0.079 457.718 17.235 121.082 13.765 241.665-5.893 378.329-29.022-45.292-46.26-83.894-49.116-125.192-51.058zM325.445 515.596c-2.197 3.653 0.036 7.258 6.724 10.858 199.997 12.273 401.010 53.164 598.223-22.144-199.699-18.357-399.109-23.157-598.305 5.785-2.25 0-4.454 1.841-6.642 5.494zM306.491 508.934c-52.858-24.197-111.256 4.647-164.396-17.074-27.034-0.243-57.919-12.672-85.913 28.064 97.012 20.462 183.366 9.173 269.316 6.56-0.036-5.47-0.079-10.909-0.079-16.378-6.218-1.968-12.528-2.349-18.927-1.172z"></path>
</svg>
