<!-- Generated by IcoMoon.io -->
<svg version="1.1" xmlns="http://www.w3.org/2000/svg" width="32" height="32" viewBox="0 0 32 32">
<title>use</title>
<path d="M16 0c-8.837 0-16 7.163-16 16s7.163 16 16 16 16-7.163 16-16-7.163-16-16-16zM11.097 16.776c0.463 0.707 1.064 1.239 1.804 1.596l0.040 2.597c-0.714-0.198-1.375-0.506-1.983-0.922s-1.133-0.912-1.576-1.487c-0.443-0.575-0.79-1.216-1.041-1.923s-0.377-1.451-0.377-2.231c0-0.939 0.178-1.824 0.535-2.657s0.846-1.56 1.467-2.181 1.345-1.11 2.171-1.467c0.826-0.357 1.715-0.535 2.667-0.535 0.939 0 1.824 0.178 2.657 0.535s1.556 0.846 2.171 1.467 1.1 1.348 1.457 2.181c0.357 0.833 0.535 1.718 0.535 2.657 0 0.582-0.066 1.117-0.198 1.606l-2.241-1.467v-0.139c0-0.608-0.116-1.18-0.347-1.715s-0.545-1.001-0.942-1.398-0.859-0.71-1.388-0.942c-0.529-0.231-1.097-0.347-1.705-0.347s-1.18 0.116-1.715 0.347c-0.535 0.231-1.001 0.545-1.398 0.942s-0.71 0.862-0.942 1.398c-0.231 0.535-0.347 1.107-0.347 1.715 0 0.872 0.231 1.662 0.694 2.369zM22.775 20.037c-0.423 0.026-0.902 0.076-1.438 0.149s-1.081 0.182-1.636 0.327l2.161 3.569c0.185 0.357 0.218 0.734 0.099 1.13s-0.364 0.687-0.734 0.872c-0.357 0.198-0.734 0.235-1.13 0.109s-0.687-0.367-0.873-0.724l-1.804-4.025c-0.489 0.291-0.929 0.598-1.319 0.922s-0.724 0.625-1.001 0.902c-0.33 0.33-0.621 0.661-0.872 0.991l-0.060-11.996 10.013 7.733c-0.449-0.013-0.919-0-1.408 0.040z"></path>
</svg>
