<?xml version="1.0" encoding="UTF-8"?><!DOCTYPE svg PUBLIC "-//W3C//DTD SVG 1.1//EN" "http://www.w3.org/Graphics/SVG/1.1/DTD/svg11.dtd"><svg xmlns="http://www.w3.org/2000/svg"><symbol id="icon-arrow" viewBox="0 0 32 32"><title>arrow</title><path d="M9.754 16.043L24.166 1.631c.354-.354.354-.923 0-1.277s-.923-.354-1.277 0L7.835 15.408a.9.9 0 0 0 0 1.277l15.054 15.047c.174.174.408.268.635.268s.461-.087.635-.268a.9.9 0 0 0 0-1.277L9.754 16.043z"/></symbol><symbol id="icon-click" viewBox="0 0 32 32"><title>click</title><path d="M14.379 5.333a.533.533 0 0 0 .533-.533V.533a.533.533 0 0 0-1.066 0V4.8c0 .294.239.533.533.533zM9.579 10.133a.533.533 0 0 0-.533-.533H4.779a.533.533 0 0 0 0 1.066h4.267a.533.533 0 0 0 .533-.533zM19.179 10.133c0 .294.239.533.533.533h4.267a.533.533 0 0 0 0-1.066h-4.267a.533.533 0 0 0-.533.533zM27.556 22.556l-12.8-12.8a.534.534 0 0 0-.911.378v18.133a.533.533 0 0 0 .88.405l3.248-2.784 3.41 5.847a.535.535 0 0 0 .728.196l3.733-2.133a.542.542 0 0 0 .251-.325.54.54 0 0 0-.054-.407l-3.266-5.598h4.404a.533.533 0 0 0 .378-.911zm-5.711-.156a.533.533 0 0 0-.461.802l3.462 5.935-2.807 1.604-3.467-5.943a.534.534 0 0 0-.808-.136l-2.853 2.446V11.422L25.89 22.401h-4.046zM7.967 2.969a.534.534 0 0 0-.754.754L10.23 6.74a.539.539 0 0 0 .755 0 .534.534 0 0 0 0-.754L7.968 2.969zM18.15 6.895a.527.527 0 0 0 .377-.156l3.017-3.017a.534.534 0 0 0-.754-.754l-3.017 3.017a.534.534 0 0 0 .378.91zM10.229 13.527l-3.017 3.018a.534.534 0 0 0 .755.754l3.017-3.018a.534.534 0 0 0-.754-.754z"/></symbol><symbol id="icon-datasource" viewBox="0 0 32 32"><title>datasource</title><path d="M9.137 5.181a.534.534 0 0 0 .924-.533L8.994 2.802a.534.534 0 0 0-.924.534l1.067 1.846zM2.8 8.995l1.847 1.067a.531.531 0 0 0 .729-.196.534.534 0 0 0-.195-.729L3.334 8.07a.534.534 0 0 0-.534.924zM29.42 8.341c-.01-.025-.012-.051-.026-.075-.017-.03-.044-.049-.066-.075a15.57 15.57 0 0 0-5.52-5.52c-.026-.021-.045-.048-.075-.066-.025-.014-.051-.016-.076-.026A15.348 15.348 0 0 0 15.999.532a.533.533 0 0 0-.533.533v14.4h-14.4a.533.533 0 0 0-.533.533c0 2.785.751 5.394 2.045 7.654.01.026.012.053.027.079.014.023.037.033.053.053a15.555 15.555 0 0 0 5.534 5.541c.026.021.045.048.075.066.019.011.041.007.06.016a15.345 15.345 0 0 0 15.348 0c.019-.009.039-.005.059-.016.029-.017.047-.043.071-.064a15.564 15.564 0 0 0 5.538-5.546c.015-.019.038-.029.051-.051.014-.023.015-.05.025-.075a15.34 15.34 0 0 0 .002-15.318zm-.698 14.389l-1.371-.791a.533.533 0 1 0-.534.924l1.361.786a14.502 14.502 0 0 1-4.532 4.532l-.786-1.361a.534.534 0 0 0-.924.534l.791 1.37a14.283 14.283 0 0 1-6.195 1.651v-1.573a.533.533 0 0 0-1.066 0v1.573a14.293 14.293 0 0 1-6.198-1.647l.794-1.374a.534.534 0 0 0-.924-.534l-.788 1.364a14.487 14.487 0 0 1-4.529-4.537l1.36-.785a.534.534 0 0 0-.534-.924l-1.362.786a14.28 14.28 0 0 1-1.676-6.191h14.39a.533.533 0 0 0 .533-.533V1.61c2.233.081 4.329.686 6.192 1.676l-.787 1.362a.534.534 0 0 0 .924.533l.785-1.36a14.502 14.502 0 0 1 4.535 4.529l-1.365.788a.534.534 0 0 0 .534.925l1.375-.794a14.293 14.293 0 0 1 1.647 6.198H28.8a.533.533 0 0 0 0 1.066h1.573a14.302 14.302 0 0 1-1.651 6.196z"/></symbol><symbol id="icon-develop" viewBox="0 0 32 32"><title>develop</title><path d="M28.8.533H3.2A2.67 2.67 0 0 0 .533 3.2v25.6A2.67 2.67 0 0 0 3.2 31.467h25.6a2.67 2.67 0 0 0 2.667-2.667V3.2A2.67 2.67 0 0 0 28.8.533zM30.4 28.8c0 .882-.718 1.6-1.6 1.6H3.2c-.882 0-1.6-.718-1.6-1.6V3.2c0-.882.718-1.6 1.6-1.6h25.6c.882 0 1.6.718 1.6 1.6v25.6z"/><path d="M25.6 19.733H6.4A2.67 2.67 0 0 0 3.733 22.4v3.2A2.67 2.67 0 0 0 6.4 28.267h19.2a2.67 2.67 0 0 0 2.667-2.667v-3.2a2.67 2.67 0 0 0-2.667-2.667zm1.6 5.867c0 .882-.718 1.6-1.6 1.6H6.4c-.882 0-1.6-.718-1.6-1.6v-3.2c0-.882.718-1.6 1.6-1.6h19.2c.882 0 1.6.718 1.6 1.6v3.2z"/><path d="M9.977 22.023a.534.534 0 0 0-.754 0l-1.222 1.222-1.222-1.222a.534.534 0 0 0-.754.754l1.221 1.222-1.222 1.222a.534.534 0 0 0 .755.755l1.223-1.222 1.222 1.222a.539.539 0 0 0 .755 0 .534.534 0 0 0 0-.754l-1.222-1.223 1.222-1.222a.534.534 0 0 0 0-.754zM15.31 22.023a.534.534 0 0 0-.754 0l-1.222 1.222-1.222-1.222a.534.534 0 0 0-.754.754l1.222 1.222-1.222 1.222a.534.534 0 0 0 .754.755l1.222-1.222 1.222 1.222c.106.103.242.156.379.156s.273-.052.377-.156a.534.534 0 0 0 0-.754l-1.222-1.223 1.222-1.222a.534.534 0 0 0 0-.754zM20.643 22.023a.534.534 0 0 0-.754 0l-1.222 1.222-1.222-1.222a.534.534 0 0 0-.754.754l1.222 1.222-1.222 1.222a.534.534 0 0 0 .754.755l1.222-1.222 1.222 1.222c.106.103.242.156.379.156s.273-.052.377-.156a.534.534 0 0 0 0-.754l-1.222-1.223 1.222-1.222a.534.534 0 0 0 0-.754zM25.977 22.023a.534.534 0 0 0-.754 0l-1.222 1.222-1.222-1.222a.534.534 0 0 0-.754.754l1.222 1.222-1.222 1.222a.534.534 0 0 0 .754.755l1.222-1.222 1.222 1.222c.106.103.242.156.379.156s.273-.052.377-.156a.534.534 0 0 0 0-.754l-1.222-1.223 1.222-1.222a.534.534 0 0 0 0-.754zM8.081 11.17c.018.128.034.256.059.382.026.131.06.26.092.389.025.096.046.192.074.286.042.142.091.279.14.418.028.078.055.157.085.234.058.145.122.287.188.428.031.066.062.133.096.198a7.336 7.336 0 0 0 .625 1.014l.11.147c.106.138.215.271.33.401.018.021.034.044.053.064.004.004.011.005.014.01a7.437 7.437 0 0 0 5.522 2.459 7.444 7.444 0 0 0 5.52-2.457c.004-.005.012-.006.016-.012.019-.02.034-.044.053-.064a7.491 7.491 0 0 0 1.065-1.563c.033-.064.063-.129.094-.194.067-.142.131-.285.19-.432.03-.076.057-.153.084-.229.05-.14.099-.279.141-.422.027-.092.048-.186.073-.279.033-.131.067-.261.093-.396.025-.125.039-.251.058-.375.015-.107.034-.212.045-.321a7.48 7.48 0 0 0-.002-1.483 7.452 7.452 0 0 0-2.682-4.998c-1.291-1.067-2.945-1.708-4.747-1.708s-3.456.641-4.747 1.708A7.537 7.537 0 0 0 8.905 6.58a7.401 7.401 0 0 0-.866 4.277c.011.107.03.21.045.316zm2.92 3.539c.98-1.511 2.652-2.443 4.466-2.443s3.486.931 4.466 2.443a6.38 6.38 0 0 1-8.932 0zm2.332-5.642c0-1.177.957-2.133 2.133-2.133s2.133.957 2.133 2.133-.957 2.133-2.133 2.133-2.133-.957-2.133-2.133zm.233-5.046a6.366 6.366 0 0 1 1.901-.288c3.53 0 6.4 2.87 6.4 6.4 0 .304-.029.605-.071.902l-.027.174a6.364 6.364 0 0 1-.576 1.765l-.026.053a6.226 6.226 0 0 1-.5.821l-.007.011a6.404 6.404 0 0 0-3.181-2.325 3.183 3.183 0 0 0 1.188-2.468c0-1.764-1.436-3.2-3.2-3.2s-3.2 1.436-3.2 3.2c0 .998.469 1.881 1.188 2.468a6.41 6.41 0 0 0-3.181 2.325l-.007-.011a6.306 6.306 0 0 1-.499-.819l-.028-.058a6.393 6.393 0 0 1-.575-1.763l-.027-.174a6.305 6.305 0 0 1-.071-.902c0-1.545.549-2.962 1.463-4.069.391-.475.85-.892 1.361-1.236a6.322 6.322 0 0 1 1.675-.806z"/></symbol><symbol id="icon-diagnosis" viewBox="0 0 32 32"><title>diagnosis</title><path d="M25.949 12.465l-.004-.006-.006-.004-6.369-6.369-.004-.006-.006-.004-1.59-1.59a.533.533 0 0 0-.752.752l1.22 1.22L4.462 20.434a.533.533 0 0 0-.146.48l1.008 5.038-5.116 5.116a.533.533 0 0 0 .375.908.53.53 0 0 0 .375-.155l5.116-5.116 5.037 1.008a.532.532 0 0 0 .48-.145l13.977-13.977 1.218 1.22a.535.535 0 0 0 .751 0 .533.533 0 0 0 0-.752l-1.59-1.591zM11.041 26.612l-4.69-.938-.938-4.69 1.814-1.814 1.484 1.484c.106.103.241.155.377.155s.272-.052.375-.155a.533.533 0 0 0 0-.752l-1.484-1.485 1.641-1.641 1.218 1.218a.532.532 0 1 0 .751-.751l-1.218-1.22 1.375-1.375 1.75 1.75a.532.532 0 1 0 .751-.751l-1.75-1.751 1.641-1.641 1.484 1.484a.532.532 0 1 0 .751-.751l-1.484-1.484 1.641-1.642 1.75 1.75a.532.532 0 1 0 .751-.751l-1.75-1.751 1.906-1.906 5.628 5.628-13.776 13.776zM31.793 7.676L24.35.233a.533.533 0 0 0-.752.752l1.218 1.218-2.813 2.813a.533.533 0 0 0 .375.908.53.53 0 0 0 .375-.155l2.814-2.814 3.501 3.501-2.813 2.813a.533.533 0 0 0 .375.908.53.53 0 0 0 .375-.155l2.814-2.814 1.218 1.218a.532.532 0 0 0 .752-.751z"/></symbol><symbol id="icon-doc" viewBox="0 0 32 32"><title>doc</title><path d="M28.375 3.625v26.813H6.719a3.094 3.094 0 1 1 0-6.188h19.594V-.5H5.688a4.137 4.137 0 0 0-4.125 4.125v24.75A4.137 4.137 0 0 0 5.688 32.5h24.75V3.625h-2.063z"/><path d="M6.721 26.313h-.002a1.032 1.032 0 0 0 0 2.062h19.592v-2.063H6.721z"/></symbol><symbol id="icon-domain" viewBox="0 0 32 32"><title>domain</title><path d="M9.824 12.011a.567.567 0 0 0-.672.448l-.816 4.081-.969-1.939c-.194-.387-.829-.387-1.023 0l-.969 1.939-.816-4.081a.57.57 0 1 0-1.12.224l1.143 5.714a.57.57 0 0 0 1.072.143l1.203-2.406 1.203 2.407a.57.57 0 0 0 1.069-.145l1.143-5.714a.57.57 0 0 0-.448-.672zM18.967 12.011a.567.567 0 0 0-.672.448l-.816 4.081-.969-1.939c-.194-.387-.829-.387-1.023 0l-.969 1.939-.816-4.081a.57.57 0 1 0-1.12.224l1.143 5.714a.57.57 0 0 0 .485.454.563.563 0 0 0 .587-.311L16 16.134l1.203 2.407a.57.57 0 0 0 1.069-.145l1.143-5.714a.57.57 0 0 0-.448-.672zM28.11 12.011a.568.568 0 0 0-.672.448l-.816 4.081-.969-1.939c-.194-.387-.829-.387-1.023 0l-.969 1.939-.816-4.081a.57.57 0 1 0-1.12.224l1.143 5.714a.57.57 0 0 0 1.072.143l1.203-2.406 1.203 2.407a.57.57 0 0 0 1.069-.145l1.143-5.714a.57.57 0 0 0-.448-.672z"/><path d="M29.143 8.571h-1.758c-2.461-3.577-6.471-5.714-10.814-5.714S8.217 4.994 5.756 8.571H2.857A2.86 2.86 0 0 0 0 11.428v8a2.86 2.86 0 0 0 2.857 2.857h2.205a13.06 13.06 0 0 0 10.942 6.818c.189.025.377.039.569.039s.381-.015.569-.039a13.057 13.057 0 0 0 10.942-6.818h1.059A2.86 2.86 0 0 0 32 19.428v-8a2.86 2.86 0 0 0-2.857-2.857zm-3.156 0h-3.29c-.638-1.657-1.462-3.006-2.416-3.971a11.952 11.952 0 0 1 5.706 3.971zm-14.325 0C12.742 5.982 14.31 4.365 16 4.062v4.509h-4.338zm5.481-4.508c1.691.302 3.258 1.919 4.339 4.509h-4.339V4.063zm-4.281.537c-.954.966-1.779 2.314-2.417 3.971H7.156A11.962 11.962 0 0 1 12.862 4.6zM6.359 22.286h3.687c.661 2.17 1.631 3.912 2.792 5.097a11.935 11.935 0 0 1-6.479-5.097zm10.784 5.641v-5.641h4.761c-1.046 3.182-2.837 5.286-4.761 5.641zm-1.143 0c-1.925-.355-3.715-2.458-4.761-5.641H16v5.641zm4.304-.544c1.161-1.185 2.131-2.928 2.793-5.097h3.687a11.93 11.93 0 0 1-6.48 5.097zm10.553-7.954c0 .945-.769 1.714-1.714 1.714H2.857a1.716 1.716 0 0 1-1.714-1.714v-8c0-.945.769-1.714 1.714-1.714h26.286c.945 0 1.714.769 1.714 1.714v8z"/></symbol><symbol id="icon-email" viewBox="0 0 32 32"><title>email</title><path d="M29.326 5.333H2.674A2.67 2.67 0 0 0 .007 8v16a2.67 2.67 0 0 0 2.667 2.667h26.653A2.67 2.67 0 0 0 31.994 24V8a2.671 2.671 0 0 0-2.668-2.667zM30.926 24c0 .882-.718 1.6-1.6 1.6H2.674c-.882 0-1.6-.718-1.6-1.6V8c0-.882.718-1.6 1.6-1.6h26.653c.882 0 1.6.718 1.6 1.6l-.001 16z"/><path d="M28.707 8.777a.533.533 0 0 0-.737-.157l-10.677 6.941c-.863.591-2.269.591-3.132 0L4.028 8.628a.535.535 0 0 0-.742.139.535.535 0 0 0 .141.741l10.133 6.933c.609.416 1.391.624 2.171.624.777 0 1.553-.206 2.155-.617l10.667-6.933a.535.535 0 0 0 .156-.738zM10.846 16.128l-7.467 6.4a.533.533 0 1 0 .693.81l7.467-6.4a.533.533 0 1 0-.693-.81zM21.14 16.128a.533.533 0 1 0-.693.81l7.467 6.4a.53.53 0 0 0 .751-.058.534.534 0 0 0-.059-.752l-7.466-6.4z"/></symbol><symbol id="icon-fast" viewBox="0 0 32 32"><title>fast</title><path d="M31.467 28.8H3.2V.533a.533.533 0 0 0-1.066 0V28.8h-1.6a.533.533 0 0 0 0 1.066h1.6v1.6a.533.533 0 0 0 1.066 0v-1.6h28.267a.533.533 0 0 0 0-1.066z"/><path d="M31.467 5.333h-6.4a.533.533 0 0 0-.378.911l2.56 2.56-6.531 7.034-2.822-1.882a.533.533 0 0 0-.673.067L6.556 24.69a.534.534 0 0 0 .755.755l10.357-10.357 2.836 1.89c.22.146.509.112.687-.081l6.814-7.338 3.085 3.085a.539.539 0 0 0 .582.115.534.534 0 0 0 .33-.493v-6.4a.533.533 0 0 0-.533-.533zm-.534 5.646L26.354 6.4h4.579v4.579z"/></symbol><symbol id="icon-multilingual" viewBox="0 0 32 32"><title>multilingual</title><path d="M25.931 29.793h-7.172v-.552a.552.552 0 0 0-.552-.552h-.552v-.552a.552.552 0 0 0-.552-.552h-.552v-2.234c6.74-.292 12.138-5.85 12.138-12.662 0-6.997-5.693-12.69-12.69-12.69s-12.69 5.693-12.69 12.69c0 6.81 5.398 12.37 12.138 12.662v2.234h-.552a.552.552 0 0 0-.552.552v.552h-.552a.552.552 0 0 0-.552.552v.552H6.067a.552.552 0 1 0 0 1.104h7.172v.552c0 .305.247.552.552.552h4.414a.552.552 0 0 0 .552-.552v-.552h7.172a.552.552 0 1 0 0-1.104zM4.441 13.241h4.402c.046 2.003.335 3.875.831 5.517H6.15a11.494 11.494 0 0 1-1.708-5.517zm1.709-6.62h3.524c-.495 1.642-.785 3.515-.831 5.517H4.441a11.494 11.494 0 0 1 1.708-5.517zm21.409 5.517h-4.402c-.046-2.003-.335-3.875-.831-5.517h3.524a11.494 11.494 0 0 1 1.708 5.517zm-1.709 6.621h-3.524c.495-1.642.785-3.514.831-5.517h4.402a11.494 11.494 0 0 1-1.708 5.517zm-9.298 5.462v-4.359h4.17c-1.013 2.404-2.505 4.056-4.17 4.359zm0-5.462v-5.517h5.502c-.052 2.003-.384 3.887-.922 5.517h-4.579zm5.501-6.621h-5.502V6.621h4.579c.54 1.63.871 3.515.922 5.517zm-5.501-6.621V1.158c1.665.302 3.157 1.954 4.17 4.359h-4.17zm-1.104-4.358v4.359h-4.17c1.013-2.404 2.505-4.056 4.17-4.359zm0 5.462v5.517H9.946c.052-2.003.384-3.887.922-5.517h4.579zm-5.501 6.62h5.502v5.517H10.87c-.54-1.63-.871-3.514-.922-5.517zm5.501 6.621v4.359c-1.665-.302-3.157-1.954-4.17-4.359h4.17zm4.165 3.829c.937-.949 1.737-2.253 2.338-3.829h3.132a11.61 11.61 0 0 1-5.47 3.829zm5.469-18.174H21.95c-.6-1.576-1.401-2.88-2.338-3.829a11.61 11.61 0 0 1 5.47 3.829zM12.387 1.688c-.937.949-1.737 2.253-2.338 3.829H6.917a11.61 11.61 0 0 1 5.47-3.829zM6.918 19.862h3.132c.6 1.576 1.401 2.88 2.338 3.829a11.61 11.61 0 0 1-5.47-3.829zm10.737 11.034h-3.31v-1.103h.552a.552.552 0 0 0 .552-.552v-.552h1.103v.552c0 .305.247.552.552.552h.552v1.103z"/></symbol><symbol id="icon-platform" viewBox="0 0 32 32"><title>platform</title><path d="M24.532 11.2c-.572 0-1.142.067-1.701.197-1.694-3.375-5.119-5.531-8.847-5.531-4.883 0-9.041 3.634-9.812 8.511C1.698 15.15.001 17.46.001 20.115c0 3.319 2.652 6.019 5.913 6.019h18.829a.814.814 0 0 0 .177-.019 7.457 7.457 0 0 0 7.081-7.447C32 14.551 28.651 11.2 24.533 11.2zm.332 13.851c-.01 0-.113.016-.123.017H5.912c-2.672 0-4.846-2.222-4.846-4.953 0-2.288 1.526-4.261 3.711-4.8a.535.535 0 0 0 .401-.453c.556-4.521 4.34-7.929 8.803-7.929 3.458 0 6.625 2.085 8.069 5.313.11.244.387.371.64.292a6.422 6.422 0 0 1 1.841-.272c3.53 0 6.4 2.87 6.4 6.4a6.393 6.393 0 0 1-6.068 6.384z"/></symbol><symbol id="icon-publish" viewBox="0 0 32 32"><title>publish</title><path d="M4.8 0A4.806 4.806 0 0 0 0 4.8c0 2.452 3.915 8.191 4.362 8.836a.532.532 0 0 0 .876 0C5.685 12.991 9.6 7.252 9.6 4.8 9.6 2.154 7.446 0 4.8 0zm0 12.379C3.458 10.35 1.067 6.401 1.067 4.8c0-2.059 1.675-3.733 3.733-3.733S8.533 2.742 8.533 4.8c0 1.6-2.391 5.549-3.733 7.579zM26.133 12.8c-3.234 0-5.867 2.741-5.867 6.112 0 3.186 5.181 12.425 5.402 12.816a.536.536 0 0 0 .93 0C26.819 31.335 32 22.097 32 18.912c0-3.371-2.633-6.112-5.867-6.112zm0 17.564c-1.674-3.073-4.8-9.262-4.8-11.452 0-2.782 2.154-5.045 4.8-5.045s4.8 2.263 4.8 5.045c0 2.188-3.126 8.379-4.8 11.452zM14.273 15.354a6.442 6.442 0 0 0-1.417-1.809.534.534 0 0 0-.706.8c.469.415.857.911 1.183 1.516a.531.531 0 0 0 .723.217.535.535 0 0 0 .217-.723zM10.887 12.369a9.251 9.251 0 0 0-2.178-.531.535.535 0 0 0-.135 1.059 8.336 8.336 0 0 1 1.929.467.53.53 0 0 0 .689-.306.53.53 0 0 0-.304-.689zM23.999 30.933a13.42 13.42 0 0 1-2.032-.143.533.533 0 1 0-.162 1.054c.67.103 1.408.156 2.195.156a.533.533 0 0 0-.001-1.066zM20.05 30.276a5.634 5.634 0 0 1-1.635-1.014.533.533 0 1 0-.715.791 6.728 6.728 0 0 0 1.941 1.209.535.535 0 0 0 .409-.986zM15.635 24.449a.534.534 0 0 0 .445-.609 58.416 58.416 0 0 1-.279-2.101.533.533 0 1 0-1.059.127c.085.718.173 1.436.284 2.139a.535.535 0 0 0 .61.445zM16.503 25.869a.533.533 0 1 0-1.029.283 9.84 9.84 0 0 0 .819 2.093.529.529 0 0 0 .723.215.533.533 0 0 0 .214-.723 8.777 8.777 0 0 1-.727-1.868zM15.075 20.21a.534.534 0 0 0 .446-.608 19.198 19.198 0 0 0-.437-2.15.533.533 0 1 0-1.029.279c.159.583.29 1.229.413 2.033a.534.534 0 0 0 .608.447z"/><path d="M4.8 3.2c-.882 0-1.6.718-1.6 1.6s.718 1.6 1.6 1.6 1.6-.718 1.6-1.6-.718-1.6-1.6-1.6zm0 2.133c-.293 0-.533-.24-.533-.533s.24-.533.533-.533.533.24.533.533-.24.533-.533.533zM26.133 16c-1.471 0-2.667 1.196-2.667 2.667s1.196 2.667 2.667 2.667 2.667-1.196 2.667-2.667S27.604 16 26.133 16zm0 4.267c-.882 0-1.6-.718-1.6-1.6s.718-1.6 1.6-1.6 1.6.718 1.6 1.6-.718 1.6-1.6 1.6z"/></symbol><symbol id="icon-reliability" viewBox="0 0 32 32"><title>reliability</title><path d="M23.962 2.853c.956 1.425.533 2.174.07 2.655l-.682.667a.532.532 0 0 0-.16.355l-.166 3.337a.534.534 0 0 0 .526.558.847.847 0 0 1 .629.287.772.772 0 0 1 .186.607l-.341 2.667c-.05.401-.405.703-.891.703a.534.534 0 0 0-.525.441c-.138.777-.66 1.646-.666 1.655a.535.535 0 0 0 .18.733c.251.151.578.07.732-.179.022-.037.475-.787.709-1.617a1.886 1.886 0 0 0 1.519-1.6l.341-2.667a1.848 1.848 0 0 0-.439-1.443 1.904 1.904 0 0 0-.871-.566l.132-2.654.544-.532c.736-.766 1.344-2.081.059-4-.995-1.485-2.69-2.237-5.04-2.237-.145 0-.294-.004-.448-.009-1.07-.028-2.399-.063-4.062 1.049-4.613.083-6.765 1.78-6.765 5.331 0 .623.092 2.186.143 3.008A1.91 1.91 0 0 0 7.665 10c-.351.4-.514.93-.447 1.454l.34 2.667a1.886 1.886 0 0 0 1.626 1.618 9.037 9.037 0 0 0 2.538 5.039l-.512 2.003-5.311 1.298C2.536 24.9 0 28.074 0 31.461c0 .294.239.533.533.533H17.6a.533.533 0 0 0 .001-1.066H1.093c.255-2.668 2.385-5.161 5.059-5.813l5.622-1.374a.533.533 0 0 0 .39-.385l.669-2.614a.531.531 0 0 0-.156-.525c-1.403-1.286-2.33-3.169-2.482-5.037a.535.535 0 0 0-.532-.49h-.222a.823.823 0 0 1-.825-.703l-.34-2.667a.763.763 0 0 1 .19-.613.842.842 0 0 1 .634-.284h.141a.531.531 0 0 0 .532-.569c-.002-.026-.174-2.649-.174-3.459 0-2.082.698-4.217 5.872-4.267a.533.533 0 0 0 .301-.096c1.438-1.007 2.561-.976 3.559-.951.163.004.321.009.476.009 1.972 0 3.37.593 4.154 1.763z"/><path d="M31.467 22.395h-.533v-.533c0-2.646-2.154-4.8-4.8-4.8s-4.8 2.154-4.8 4.8v.533h-.533a.533.533 0 0 0-.533.533v8.533c0 .294.239.533.533.533h10.667a.533.533 0 0 0 .533-.533v-8.533a.533.533 0 0 0-.533-.533zm-9.067-.534c0-2.059 1.675-3.733 3.733-3.733s3.733 1.675 3.733 3.733v.533h-7.467v-.533zm8.533 9.067h-9.6v-7.467h9.6v7.467z"/><path d="M26.133 24.528c-.882 0-1.6.718-1.6 1.6 0 .694.447 1.281 1.067 1.502v.631a.533.533 0 0 0 1.066 0v-.631a1.597 1.597 0 0 0 1.067-1.502c0-.882-.718-1.6-1.6-1.6z"/></symbol><symbol id="icon-share" viewBox="0 0 32 32"><title>share</title><path d="M28.267 8.533h-8.054c-.261-1.805-1.804-3.2-3.679-3.2h-12.8A3.737 3.737 0 0 0 .001 9.066v7.467a3.737 3.737 0 0 0 3.733 3.733h.383l-.9 3.604a.533.533 0 0 0 .851.546l5.187-4.15h2.853a3.728 3.728 0 0 0 3.359 2.133h7.28l5.186 4.15a.536.536 0 0 0 .622.032.532.532 0 0 0 .229-.578l-.9-3.604h.383A3.737 3.737 0 0 0 32 18.666v-6.4a3.737 3.737 0 0 0-3.733-3.733zM11.776 19.2H9.067a.538.538 0 0 0-.334.116l-4.099 3.28.684-2.734a.536.536 0 0 0-.517-.663H3.734a2.67 2.67 0 0 1-2.667-2.667V9.065a2.67 2.67 0 0 1 2.667-2.667h12.8c1.289 0 2.366.917 2.613 2.133h-3.68a3.737 3.737 0 0 0-3.733 3.733v6.4c0 .177.015.354.043.533zm19.157-.533a2.67 2.67 0 0 1-2.667 2.667h-1.067a.531.531 0 0 0-.517.663l.684 2.734-4.099-3.28a.538.538 0 0 0-.334-.116h-7.467a2.662 2.662 0 0 1-2.5-1.771l-.001-.007a2.912 2.912 0 0 1-.119-.439 2.56 2.56 0 0 1-.046-.449v-6.4a2.67 2.67 0 0 1 2.667-2.667h12.8a2.67 2.67 0 0 1 2.667 2.667v6.4z"/></symbol><symbol id="icon-star" viewBox="0 0 24 24"><title>star3</title><path d="M24 9.306l-8.292-1.205L12 .587 8.292 8.101 0 9.306l6 5.849-1.416 8.258L12 19.514l7.416 3.899L18 15.155l6-5.849z"/></symbol><symbol id="icon-u4" viewBox="0 0 1024 1024"><title>u4</title><path fill="#ff6d4d" d="M632.761 960.625c-162.887-27.85-343.488-21.639-523.947-19.822-57.794.614-107.723-18.455-107.451-81.546.279-64.854 38.732-112.442 111.068-102.951 265.258 34.817 530.071-15.122 795.294-1.518 73.494 3.785 110.416 36.598 111.773 102.598 1.336 64.797-47.564 81.204-105.221 83.762-88.378 3.949-176.541 11.975-281.516 19.478zM920.95 264.971c64.481-2.079 95.133-39.002 98.81-94.546 4.24-63.757-39.319-87.016-98.439-90.594-271.811-16.458-543.451 34.367-815.515.643C48.546 73.38.525 103.521 1.283 165.302c.732 59.863 34.961 100.545 104.188 99.399 183.802-2.991 367.711-6.673 529.901 19.524 109.052-7.681 197.225-16.434 285.579-19.261zm12.456 327.887c55.886-1.201 85.1-26.943 86.727-78.003 1.788-56.526-29.268-84.219-89.023-87.259-279.278-14.328-558.417 34.41-837.758.695C34.545 421.197 0 456.192.597 511.492c.599 55.652 35.748 82.109 95.005 81.204 187.58-2.907 375.412-8.052 537.767 18.992 116.252-7.739 208.049-16.886 300.037-18.838z"/><path fill="#f9f9f9" d="M653.993 900.335c-176.363-19.524-353.203-27.316-530.687-21.584-23.129.748-62.585 11.813-58.552-33.108 2.837-31.744 34.095-30.543 57.024-28.038 255.043 28.199 509.97-14.86 764.943-.476 23.798 1.355 57.007-1.925 59.943 25.687 4.031 37.88-32.81 34.121-58.607 36.79-77.813 7.997-154.859 25.956-234.063 20.722zm189.459-760.477c-237.129-11.152-474.078 28.969-711.334 2.132-23.194-2.637-63.461-14.966-66.787 23.745-4.084 47.59 40.032 37.346 67.266 36.975 152.907-1.925 305.225-.079 457.718 17.235 121.082 13.765 241.665-5.893 378.329-29.022-45.292-46.26-83.894-49.116-125.192-51.058zM325.445 515.596c-2.197 3.653.036 7.258 6.724 10.858 199.997 12.273 401.01 53.164 598.223-22.144-199.699-18.357-399.109-23.157-598.305 5.785-2.25 0-4.454 1.841-6.642 5.494zm-18.954-6.662c-52.858-24.197-111.256 4.647-164.396-17.074-27.034-.243-57.919-12.672-85.913 28.064 97.012 20.462 183.366 9.173 269.316 6.56-.036-5.47-.079-10.909-.079-16.378-6.218-1.968-12.528-2.349-18.927-1.172z"/></symbol><symbol id="icon-use" viewBox="0 0 32 32"><title>use</title><path d="M16 0C7.163 0 0 7.163 0 16s7.163 16 16 16 16-7.163 16-16S24.837 0 16 0zm-4.903 16.776a4.422 4.422 0 0 0 1.804 1.596l.04 2.597c-.714-.198-1.375-.506-1.983-.922a6.88 6.88 0 0 1-2.617-3.41 6.62 6.62 0 0 1-.377-2.231c0-.939.178-1.824.535-2.657s.846-1.56 1.467-2.181 1.345-1.11 2.171-1.467a6.65 6.65 0 0 1 2.667-.535c.939 0 1.824.178 2.657.535s1.556.846 2.171 1.467 1.1 1.348 1.457 2.181a6.67 6.67 0 0 1 .535 2.657c0 .582-.066 1.117-.198 1.606l-2.241-1.467v-.139c0-.608-.116-1.18-.347-1.715s-.545-1.001-.942-1.398-.859-.71-1.388-.942c-.529-.231-1.097-.347-1.705-.347s-1.18.116-1.715.347c-.535.231-1.001.545-1.398.942s-.71.862-.942 1.398a4.281 4.281 0 0 0-.347 1.715c0 .872.231 1.662.694 2.369zm11.678 3.261c-.423.026-.902.076-1.438.149s-1.081.182-1.636.327l2.161 3.569c.185.357.218.734.099 1.13s-.364.687-.734.872c-.357.198-.734.235-1.13.109s-.687-.367-.873-.724l-1.804-4.025c-.489.291-.929.598-1.319.922s-.724.625-1.001.902c-.33.33-.621.661-.872.991l-.06-11.996 10.013 7.733c-.449-.013-.919 0-1.408.04z"/></symbol><symbol id="icon-user" viewBox="0 0 32 32"><title>user</title><path d="M32 16.002C32 7.185 24.815 0 15.998 0S0 7.185 0 16.002c0 4.857 2.203 9.225 5.631 12.162a.537.537 0 0 0 .162.121A15.831 15.831 0 0 0 16.039 32c3.836 0 7.389-1.387 10.163-3.632a.647.647 0 0 0 .367-.287C29.88 25.103 32 20.817 32 16.002zm-30.53 0C1.47 8.001 8.001 1.47 16.002 1.47s14.532 6.531 14.532 14.532c0 3.919-1.55 7.468-4.082 10.083-.408-1.92-1.633-5.185-5.389-7.306.858-1.062 1.345-2.449 1.345-3.919 0-3.511-2.857-6.368-6.368-6.368s-6.368 2.857-6.368 6.368c0 1.47.529 2.816 1.345 3.919-3.791 2.12-5.015 5.386-5.382 7.306A14.253 14.253 0 0 1 1.47 16.002zm9.634-1.104c0-2.695 2.203-4.898 4.898-4.898s4.898 2.203 4.898 4.898-2.203 4.898-4.898 4.898-4.898-2.203-4.898-4.898zm-4.165 12.45c.083-1.183.733-5.185 5.144-7.43 1.104.858 2.449 1.345 3.919 1.345s2.857-.529 3.961-1.387c4.369 2.245 5.061 6.164 5.185 7.43-2.491 1.999-5.673 3.224-9.101 3.224-3.473.004-6.618-1.179-9.108-3.182z"/></symbol><symbol id="icon-video" viewBox="0 0 32 32"><title>video</title><path d="M16 0C7.164 0 0 7.164 0 16s7.164 16 16 16 16-7.164 16-16S24.836 0 16 0zm-6 24V8l16.008 8L10 24z"/></symbol><symbol id="icon-web" viewBox="0 0 32 32"><title>web</title><path d="M26.989 18.615a178.917 178.917 0 0 1 4.004 3.078l-2.631 4.614-4.755-2.099-4.406 2.577L18.63 32h-5.262l-.584-5.231-4.342-2.583-4.807 2.122-2.63-4.614s1.817-1.464 3.968-3.066v-5.259l-3.968-3.06 2.63-4.615 4.692 2.088 4.658-2.527L13.368 0h5.262l.381 5.233 4.594 2.578 4.758-2.118 2.631 4.615-4.004 3.071v5.236zM15.999 12a4 4 0 1 0 0 8 4 4 0 0 0 0-8z"/></symbol></svg>