<?xml version="1.0" encoding="UTF-8"?><!DOCTYPE svg PUBLIC "-//W3C//DTD SVG 1.1//EN" "http://www.w3.org/Graphics/SVG/1.1/DTD/svg11.dtd"><svg xmlns="http://www.w3.org/2000/svg"><symbol id="icon-arrow" viewBox="0 0 32 32"><title>arrow</title><path d="M9.754 16.043L24.166 1.631c.354-.354.354-.923 0-1.277s-.923-.354-1.277 0L7.835 15.408a.9.9 0 0 0 0 1.277l15.054 15.047c.174.174.408.268.635.268s.461-.087.635-.268a.9.9 0 0 0 0-1.277L9.754 16.043z"/></symbol><symbol id="icon-click" viewBox="0 0 32 32"><style>.st0{fill:none;stroke:#000;stroke-linecap:round;stroke-linejoin:round;stroke-miterlimit:10}.st1{display:none}</style><title>click</title><path class="st1" d="M14.379 5.333a.533.533 0 0 0 .533-.533V.533a.533.533 0 0 0-1.066 0V4.8c0 .294.239.533.533.533zM9.579 10.133a.533.533 0 0 0-.533-.533H4.779a.533.533 0 0 0 0 1.066h4.267a.533.533 0 0 0 .533-.533zM19.18 10.133c0 .294.238.533.532.533h4.267a.533.533 0 1 0 0-1.066h-4.267a.533.533 0 0 0-.532.533zM27.557 22.557L14.756 9.756a.534.534 0 0 0-.911.378v18.134a.533.533 0 0 0 .88.404l3.248-2.783 3.41 5.846a.536.536 0 0 0 .729.198l3.732-2.134a.544.544 0 0 0 .252-.325.541.541 0 0 0-.055-.406l-3.266-5.599h4.404a.533.533 0 1 0 .378-.912zm-5.711-.157a.535.535 0 0 0-.462.802l3.462 5.935-2.807 1.604-3.467-5.943a.534.534 0 0 0-.809-.136l-2.853 2.445V11.422L25.891 22.4h-4.047.002zM7.967 2.969a.534.534 0 0 0-.754.754L10.23 6.74a.539.539 0 0 0 .755 0 .534.534 0 0 0 0-.754L7.967 2.969zM18.15 6.895a.528.528 0 0 0 .377-.156l3.017-3.017a.534.534 0 0 0-.754-.754l-3.017 3.017a.532.532 0 0 0 .377.91zM10.229 13.527l-3.017 3.018a.534.534 0 0 0 .755.754l3.017-3.018a.534.534 0 0 0-.755-.754z"/><path class="st0" d="M27.051 22.95h-5.205l3.747 6.287-3.747 2.142-3.771-6.196-3.696 3.053V10.331L27.051 22.95zM19.659 10.133h4.371M18.113 6.399l3.09-3.09M14.379 4.851V.48M10.5 6.4L7.409 3.309M9.098 10.133H4.727M10.5 13.868l-3.09 3.09"/></symbol><symbol id="icon-datasource" viewBox="0 0 32 32"><style>.st0{fill:none;stroke:#000;stroke-miterlimit:10}</style><title>fast</title><path class="st0" d="M16 .434c7.691 0 13.93 1.997 13.93 4.447v2.224c0 2.45-6.238 4.446-13.93 4.446-7.691 0-13.929-1.998-13.929-4.446V4.881C2.071 2.431 8.309.434 16 .434z"/><path class="st0" d="M16 13.776c5.459 0 10.937-.937 13.93-2.953v2.953c0 2.45-6.238 4.446-13.93 4.446-7.691 0-13.929-1.998-13.929-4.446v-2.953C5.063 12.841 10.54 13.776 16 13.776z"/><path class="st0" d="M16 20.45c5.459 0 10.937-.94 13.93-2.956v2.956c0 2.447-6.238 4.445-13.93 4.445-7.691 0-13.929-1.998-13.929-4.445v-2.956C5.063 19.512 10.54 20.45 16 20.45z"/><path class="st0" d="M16 27.117c5.459 0 10.937-.937 13.93-2.953v2.953c0 2.449-6.238 4.449-13.93 4.449-7.691 0-13.929-2-13.929-4.449v-2.953C5.063 26.181 10.54 27.117 16 27.117z"/></symbol><symbol id="icon-develop" viewBox="0 0 32 32"><style>.st0{fill:none;stroke:#080103;stroke-width:1.08;stroke-linecap:round;stroke-linejoin:round;stroke-miterlimit:10}.st1{display:none}</style><title>develop</title><path class="st1" d="M28.8.533H3.2A2.67 2.67 0 0 0 .533 3.2v25.6A2.67 2.67 0 0 0 3.2 31.467h25.6a2.67 2.67 0 0 0 2.667-2.667V3.2A2.67 2.67 0 0 0 28.8.533zM30.4 28.8c0 .882-.719 1.601-1.601 1.601H3.2c-.882 0-1.6-.719-1.6-1.601V3.2c0-.882.718-1.6 1.6-1.6h25.6c.882 0 1.601.718 1.601 1.6v25.6z"/><path class="st1" d="M25.6 19.732H6.4A2.671 2.671 0 0 0 3.733 22.4v3.2A2.671 2.671 0 0 0 6.4 28.268h19.2a2.671 2.671 0 0 0 2.668-2.668v-3.2a2.672 2.672 0 0 0-2.668-2.668zm1.6 5.868c0 .883-.718 1.601-1.601 1.601H6.4c-.882 0-1.6-.718-1.6-1.601v-3.2c0-.883.718-1.601 1.6-1.601h19.2c.883 0 1.601.718 1.601 1.601v3.2z"/><path class="st1" d="M9.977 22.023a.532.532 0 0 0-.754 0l-1.222 1.222-1.222-1.222a.534.534 0 0 0-.754.754l1.221 1.222-1.222 1.222a.534.534 0 0 0 .755.756l1.223-1.223 1.222 1.223a.538.538 0 0 0 .755 0 .534.534 0 0 0 0-.754l-1.222-1.224 1.222-1.222a.534.534 0 0 0 0-.754h-.002zM15.31 22.023a.532.532 0 0 0-.754 0l-1.222 1.222-1.222-1.222a.534.534 0 0 0-.754.754l1.222 1.222-1.222 1.222a.534.534 0 0 0 .754.756l1.222-1.223 1.222 1.223a.542.542 0 0 0 .756 0 .534.534 0 0 0 0-.754l-1.222-1.224 1.222-1.222a.534.534 0 0 0 0-.754h-.002zM20.643 22.023a.532.532 0 0 0-.754 0l-1.222 1.222-1.222-1.222a.534.534 0 0 0-.754.754l1.222 1.222-1.222 1.222a.534.534 0 0 0 .754.756l1.222-1.223 1.222 1.223a.542.542 0 0 0 .756 0 .532.532 0 0 0 0-.754l-1.222-1.224 1.222-1.222a.532.532 0 0 0 0-.754h-.002zM25.977 22.023a.532.532 0 0 0-.754 0l-1.222 1.222-1.222-1.222a.532.532 0 0 0-.754 0 .532.532 0 0 0 0 .754l1.222 1.222-1.222 1.222a.532.532 0 0 0 .377.911.536.536 0 0 0 .377-.155l1.222-1.223 1.222 1.223a.542.542 0 0 0 .756 0 .532.532 0 0 0 0-.754l-1.222-1.224 1.222-1.222a.532.532 0 0 0 0-.754h-.002zM8.081 11.17c.018.128.034.256.059.382.026.131.06.26.092.389.025.096.046.192.074.286.042.142.091.279.14.418.028.078.055.157.085.234.058.145.122.287.188.428.031.066.062.133.096.198a7.336 7.336 0 0 0 .625 1.014l.11.147c.106.138.215.271.33.401.018.021.034.044.053.064.004.004.011.005.014.01a7.44 7.44 0 0 0 5.522 2.458 7.44 7.44 0 0 0 5.519-2.457c.005-.005.013-.006.017-.012.019-.02.034-.044.054-.064a7.473 7.473 0 0 0 .725-.966l.101-.167c.083-.141.163-.284.238-.43.033-.064.063-.129.094-.194.067-.142.131-.285.19-.432.03-.076.057-.153.084-.229.05-.14.099-.279.141-.422.027-.092.048-.186.073-.279.033-.131.066-.261.093-.396.025-.125.039-.251.058-.375.016-.107.035-.212.045-.321a7.48 7.48 0 0 0-.002-1.483 7.45 7.45 0 0 0-.863-2.794 7.518 7.518 0 0 0-1.818-2.204 7.427 7.427 0 0 0-4.747-1.708 7.427 7.427 0 0 0-4.747 1.708A7.542 7.542 0 0 0 8.905 6.58a7.401 7.401 0 0 0-.866 4.277c.011.107.03.21.045.316l-.003-.003zm2.92 3.539a5.328 5.328 0 0 1 4.466-2.443 5.33 5.33 0 0 1 4.467 2.443 6.38 6.38 0 0 1-8.933 0zm2.332-5.642c0-1.177.957-2.133 2.133-2.133 1.177 0 2.134.957 2.134 2.133a2.136 2.136 0 0 1-2.134 2.133 2.136 2.136 0 0 1-2.133-2.133zm.233-5.046a6.366 6.366 0 0 1 1.901-.288c3.53 0 6.4 2.87 6.4 6.4 0 .304-.029.605-.071.902l-.026.174a6.398 6.398 0 0 1-.576 1.765c-.01.017-.018.035-.026.053a6.448 6.448 0 0 1-.5.821l-.007.011a6.402 6.402 0 0 0-3.182-2.325 3.18 3.18 0 0 0 1.188-2.468c0-1.764-1.437-3.2-3.2-3.2s-3.2 1.436-3.2 3.2c0 .998.469 1.881 1.188 2.468a6.41 6.41 0 0 0-3.181 2.325l-.007-.011a6.306 6.306 0 0 1-.499-.819l-.028-.058a6.393 6.393 0 0 1-.575-1.763l-.027-.174a6.305 6.305 0 0 1-.071-.902c0-1.545.549-2.962 1.463-4.069.391-.475.85-.892 1.361-1.236a6.322 6.322 0 0 1 1.675-.806z"/><path class="st1" d="M10.067 23.612l-.866.864a.554.554 0 0 1-.796 0L.332 16.404a.554.554 0 0 1 0-.796l8.073-8.073a.554.554 0 0 1 .796 0l.866.866a.553.553 0 0 1 0 .797L3.26 16.006l6.807 6.808a.554.554 0 0 1 0 .798zM20.308 5.127l-6.464 22.364a.55.55 0 0 1-.675.382l-1.074-.295a.562.562 0 0 1-.381-.694l6.46-22.362c.088-.294.4-.468.678-.381l1.073.294a.563.563 0 0 1 .383.692zm11.38 11.277l-8.074 8.072a.553.553 0 0 1-.795 0l-.866-.864a.552.552 0 0 1 0-.799l6.808-6.808-6.808-6.808a.55.55 0 0 1 0-.797l.866-.866a.553.553 0 0 1 .795 0l8.074 8.073a.557.557 0 0 1 0 .797z"/><path class="st0" d="M8.546 24.008l-7.95-8.011 7.95-8.072M19.433 4.194l-6.911 23.851M23.271 7.927l8.118 7.841-7.777 8.238"/></symbol><symbol id="icon-diagnosis" viewBox="0 0 32 32"><style>.st0{fill:none;stroke:#000;stroke-linecap:round;stroke-miterlimit:10}</style><path class="st0" d="M.5 16.528h7.079l2.225 5.424 4.914-16.597 6.584 20.77 3.523-9.644H31.5"/></symbol><symbol id="icon-doc" viewBox="0 0 32 32"><title>doc</title><path d="M28.375 3.625v26.813H6.719a3.094 3.094 0 1 1 0-6.188h19.594V-.5H5.688a4.137 4.137 0 0 0-4.125 4.125v24.75A4.137 4.137 0 0 0 5.688 32.5h24.75V3.625h-2.063z"/><path d="M6.721 26.313h-.002a1.032 1.032 0 0 0 0 2.062h19.592v-2.063H6.721z"/></symbol><symbol id="icon-domain" viewBox="0 0 32 32"><style>.st0{fill:none;stroke:#000;stroke-linecap:round;stroke-linejoin:round;stroke-miterlimit:10}.st1{display:none}</style><title>domain</title><path class="st1" d="M29.14 8.57h-1.76c-2.46-3.58-6.47-5.71-10.81-5.71-4.34 0-8.35 2.13-10.811 5.71h-2.9A2.86 2.86 0 0 0 0 11.43v8c0 1.57 1.28 2.86 2.86 2.86h2.2C7.28 26.35 11.4 28.9 16 29.1c.19.03.38.04.57.04.199 0 .38-.01.569-.04 4.601-.189 8.721-2.75 10.94-6.81h1.06c1.58 0 2.86-1.29 2.86-2.86v-8a2.858 2.858 0 0 0-2.859-2.86zm-3.15 0H22.7c-.641-1.66-1.47-3.01-2.42-3.97 2.23.73 4.22 2.09 5.71 3.97zm-8.85-4.51c1.69.31 3.261 1.92 4.341 4.51H17.14V4.06zm-1.14 0v4.51h-4.34c1.08-2.59 2.65-4.2 4.34-4.51zm-3.14.54c-.95.97-1.78 2.31-2.42 3.97H7.16c1.48-1.88 3.47-3.24 5.7-3.97zm-6.5 17.69h3.69c.66 2.17 1.63 3.91 2.79 5.09a11.92 11.92 0 0 1-6.48-5.09zM16 27.93c-1.92-.359-3.71-2.46-4.76-5.64H16v5.64zm1.14 0v-5.64h4.76c-1.04 3.18-2.83 5.28-4.76 5.64zm3.16-.55c1.16-1.18 2.141-2.92 2.8-5.09h3.681a11.89 11.89 0 0 1-6.481 5.09zm10.56-7.95c0 .94-.771 1.71-1.721 1.71H2.86c-.95 0-1.72-.77-1.72-1.71v-8c0-.95.77-1.72 1.72-1.72h26.28c.95 0 1.721.77 1.721 1.72v8z"/><path class="st1" d="M9.824 12.011a.567.567 0 0 0-.672.448l-.816 4.081-.969-1.939c-.194-.387-.829-.387-1.023 0l-.969 1.939-.816-4.081a.571.571 0 0 0-1.12.224l1.143 5.713a.573.573 0 0 0 1.072.143l1.203-2.406L8.06 18.54a.569.569 0 0 0 .511.314c.025 0 .05 0 .073-.006a.57.57 0 0 0 .485-.453l1.143-5.714a.568.568 0 0 0-.448-.67zM18.967 12.011a.568.568 0 0 0-.672.448l-.816 4.081-.969-1.939c-.194-.387-.829-.387-1.023 0l-.969 1.939-.816-4.081a.571.571 0 0 0-1.12.224l1.143 5.713a.573.573 0 0 0 1.072.143L16 16.134l1.203 2.407a.569.569 0 0 0 .511.314c.024 0 .05 0 .073-.006a.567.567 0 0 0 .484-.453l1.144-5.714a.569.569 0 0 0-.448-.671zM28.109 12.011a.569.569 0 0 0-.672.448l-.815 4.081-.97-1.939c-.193-.387-.828-.387-1.022 0l-.969 1.939-.815-4.081a.57.57 0 1 0-1.121.224l1.144 5.713a.572.572 0 0 0 1.071.143l1.203-2.406 1.203 2.407a.571.571 0 0 0 .512.314c.024 0 .05 0 .072-.006a.57.57 0 0 0 .485-.453l1.144-5.714a.57.57 0 0 0-.45-.67z"/><path class="st0" d="M27.637 21.441c-2.021 4.155-6.283 7.02-11.214 7.02S7.23 25.596 5.21 21.44m.593-11.961a12.453 12.453 0 0 1 10.62-5.94c4.492 0 8.43 2.377 10.624 5.943M22.649 21.44c-1.107 4.156-3.442 7.021-6.144 7.021s-5.036-2.867-6.143-7.025m.327-11.957c1.201-3.564 3.357-5.941 5.817-5.941 2.461 0 4.618 2.377 5.819 5.943"/><path class="st0" d="M31.547 9.479H.485V21.44H31.547z"/><path class="st0" d="M9.781 12.594l-1.156 5.75-1.77-2.916-1.646 2.916L4 12.594m9.161.031l1.209 5.75 1.646-2.915 1.769 2.915 1.156-5.75m3.31-.031l1.21 5.75 1.646-2.915 1.769 2.915 1.156-5.75"/></symbol><symbol id="icon-email" viewBox="0 0 32 32"><style>.st0{stroke-linecap:round;stroke-linejoin:round}.st0,.st1{fill:none;stroke:#000;stroke-miterlimit:10}.st2{display:none}</style><title>email</title><path class="st2" d="M29.326 5.333H2.674A2.67 2.67 0 0 0 .007 8v16a2.67 2.67 0 0 0 2.667 2.667h26.653A2.67 2.67 0 0 0 31.994 24V8a2.671 2.671 0 0 0-2.668-2.667zM30.926 24c0 .882-.718 1.6-1.6 1.6H2.674c-.882 0-1.6-.718-1.6-1.6V8c0-.882.718-1.6 1.6-1.6h26.653c.882 0 1.6.718 1.6 1.6l-.001 16z"/><path class="st2" d="M28.707 8.777a.532.532 0 0 0-.736-.157l-10.678 6.941c-.863.591-2.269.591-3.132 0L4.028 8.628a.535.535 0 0 0-.742.139.535.535 0 0 0 .141.741l10.133 6.933c.609.417 1.391.624 2.171.624.777 0 1.553-.205 2.156-.616l10.666-6.933a.535.535 0 0 0 .156-.738h-.002zM10.846 16.128l-7.467 6.399a.534.534 0 0 0 .693.811l7.467-6.4a.532.532 0 1 0-.693-.81zM21.141 16.128a.533.533 0 1 0-.693.809l7.467 6.4a.533.533 0 0 0 .751-.058.535.535 0 0 0-.06-.753l-7.465-6.398z"/><path class="st1" d="M.445 9.523c0-1.657 1.419-3 3.167-3h24.736c1.749 0 3.167 1.343 3.167 3v12.952c0 1.656-1.418 3-3.167 3H3.612c-1.748 0-3.167-1.344-3.167-3V9.523z"/><path class="st0" d="M28.189 9.101s-7.691 5.913-10.615 7.244c-.328.149-1.053.275-1.412.274-.349-.001-1.049-.131-1.367-.274-3.02-1.351-11.07-7.244-11.07-7.244M11.105 16.618l-7.381 6.423m17.221-6.423l7.244 6.423"/></symbol><symbol id="icon-fast" viewBox="0 0 32 32"><style>.st0{stroke-linejoin:round}.st0,.st1{fill:none;stroke:#020202;stroke-linecap:round}.st2{display:none}</style><title>fast</title><path class="st2" d="M31.467 28.8H3.2V.533a.533.533 0 0 0-1.066 0V28.8h-1.6a.533.533 0 0 0 0 1.066h1.6v1.6a.533.533 0 0 0 1.066 0v-1.6h28.267a.533.533 0 1 0 0-1.066z"/><path class="st2" d="M31.467 5.333h-6.4a.534.534 0 1 0-.377.911l2.561 2.56-6.531 7.034-2.82-1.882a.535.535 0 0 0-.674.067L6.556 24.689a.534.534 0 0 0 .755.757L17.668 15.09l2.836 1.892c.221.146.51.11.688-.082l6.813-7.337 3.085 3.085a.539.539 0 0 0 .582.115.534.534 0 0 0 .33-.493v-6.4a.533.533 0 0 0-.533-.533h-.002v-.004zm-.533 5.646L26.354 6.4h4.58v4.579z"/><path class="st0" d="M7.118 25.029l10.541-10.5 2.716 2.221 7.285-7.471 3.625 3.596V5.904h-6.993l3.368 3.375"/><path class="st1" d="M2.708.546v30.907M31.5 29.376H.547"/></symbol><symbol id="icon-multilingual" viewBox="0 0 32 32"><title>multilingual</title><path fill="none" stroke="#000" stroke-miterlimit="10" d="M28.021 12.698c0 6.68-5.416 12.096-12.096 12.096S3.83 19.378 3.83 12.698 9.246.603 15.925.603s12.096 5.415 12.096 12.095z"/><path fill="none" stroke="#000" stroke-miterlimit="10" d="M22.632 12.698c0 6.68-2.967 12.096-6.626 12.096-3.658 0-6.625-5.416-6.625-12.096S12.347.603 16.006.603s6.626 5.415 6.626 12.095z"/><path fill="none" stroke="#000" stroke-linecap="square" stroke-miterlimit="10" d="M6.38 6.041h9.626M3.829 12.698h12.347M6.38 19.041h9.626M25.746 6.041h-9.739M28.021 12.698H16.176M25.747 19.041h-9.739"/><path fill="none" stroke="#000" stroke-linejoin="round" stroke-miterlimit="10" d="M15.924.604V28.69M15.925 28.237h-1.076v.963h-1.076v2.151h4.303v-2.095h-1.02L17 28.237h-1.075z"/><path fill="none" stroke="#000" stroke-linecap="round" stroke-miterlimit="10" d="M13.458 30.276H6.023M18.379 30.274h7.436"/></symbol><symbol id="icon-platform" viewBox="0 0 32 32"><style>.st0{fill:none;stroke:#000;stroke-miterlimit:10}</style><title>platform2</title><path class="st0" d="M28.556 1.145H3.403c-1.628 0-2.958 1.37-2.958 3.047v13.713h31.071V4.192c0-1.677-1.332-3.047-2.96-3.047zM.444 20.952c0 1.677 1.33 3.047 2.958 3.047h8.878v3.81H7.102c-.813 0-1.48.687-1.48 1.523s.666 1.523 1.48 1.523h17.756c.813 0 1.48-.687 1.48-1.523s-.666-1.523-1.48-1.523h-5.177v-3.81h8.878c1.628 0 2.96-1.37 2.96-3.047V19.43H.445l-.001 1.522z"/></symbol><symbol id="icon-publish" viewBox="0 0 32 32"><style>.st0{stroke:#060001}.st0,.st1,.st2{fill:none;stroke-linecap:round;stroke-miterlimit:10}.st1{stroke-linejoin:round;stroke:#070102}.st2{stroke:#040000}.st2,.st3{stroke-linejoin:round}.st3,.st4{fill:none;stroke:#000;stroke-miterlimit:10}.st5{display:none}</style><title>publish</title><path class="st5" d="M4.8 0A4.806 4.806 0 0 0 0 4.8c0 2.452 3.915 8.191 4.362 8.836a.532.532 0 0 0 .876 0C5.685 12.991 9.6 7.252 9.6 4.8 9.6 2.154 7.446 0 4.8 0zm0 12.379C3.458 10.35 1.067 6.401 1.067 4.8A3.737 3.737 0 0 1 4.8 1.067 3.738 3.738 0 0 1 8.533 4.8c0 1.6-2.391 5.549-3.733 7.579zM26.133 12.8c-3.234 0-5.867 2.741-5.867 6.112 0 3.186 5.183 12.425 5.402 12.816a.536.536 0 0 0 .93.001c.22-.394 5.402-9.631 5.402-12.817 0-3.371-2.633-6.112-5.867-6.112zm0 17.564c-1.674-3.073-4.8-9.263-4.8-11.452 0-2.782 2.153-5.045 4.8-5.045s4.801 2.263 4.801 5.045c0 2.188-3.127 8.379-4.801 11.452zM14.273 15.354a6.442 6.442 0 0 0-1.417-1.809.534.534 0 0 0-.706.8c.469.415.857.911 1.183 1.516a.531.531 0 0 0 .723.217.536.536 0 0 0 .217-.724zM10.887 12.369a9.251 9.251 0 0 0-2.178-.531.535.535 0 0 0-.135 1.059 8.336 8.336 0 0 1 1.929.467.53.53 0 0 0 .689-.306.53.53 0 0 0-.305-.689zM23.999 30.934c-.733 0-1.417-.049-2.032-.144a.532.532 0 0 0-.162 1.052c.67.105 1.408.158 2.195.158a.533.533 0 0 0-.001-1.066zM20.05 30.275a5.615 5.615 0 0 1-1.635-1.015.534.534 0 0 0-.715.791 6.736 6.736 0 0 0 1.94 1.209.534.534 0 0 0 .41-.985zM15.635 24.449a.534.534 0 0 0 .445-.609 58.416 58.416 0 0 1-.279-2.101.533.533 0 1 0-1.059.127c.085.718.173 1.436.284 2.139a.535.535 0 0 0 .61.445l-.001-.001zM16.503 25.869a.533.533 0 1 0-1.029.283c.22.796.487 1.479.819 2.093a.527.527 0 0 0 .469.278.535.535 0 0 0 .469-.787 8.694 8.694 0 0 1-.728-1.867zM15.075 20.21a.534.534 0 0 0 .446-.608 19.155 19.155 0 0 0-.437-2.148.533.533 0 0 0-1.029.277c.159.584.29 1.229.413 2.033a.533.533 0 0 0 .607.446z"/><path class="st5" d="M4.563 2.899c-.882 0-1.6.718-1.6 1.6s.718 1.6 1.6 1.6 1.6-.718 1.6-1.6-.718-1.6-1.6-1.6zm0 2.133c-.293 0-.533-.24-.533-.533s.24-.533.533-.533.533.24.533.533-.24.533-.533.533zM26.133 16c-1.471 0-2.667 1.195-2.667 2.667s1.196 2.667 2.667 2.667 2.667-1.195 2.667-2.667S27.604 16 26.133 16zm0 4.268c-.882 0-1.6-.719-1.6-1.601s.718-1.601 1.6-1.601c.883 0 1.6.719 1.6 1.601s-.717 1.601-1.6 1.601z"/><path class="st4" d="M5.937 4.584a1.289 1.289 0 1 1-2.578 0 1.289 1.289 0 0 1 2.578 0z"/><path class="st3" d="M8.619 4.5c0 2.193-3.819 8.655-3.819 8.655S.507 6.693.507 4.5C.507 2.306 2.323.527 4.563.527S8.619 2.306 8.619 4.5z"/><path class="st2" d="M10.741 12.8l-.375-.074-1.746-.344"/><path class="st0" d="M12.458 13.958s.694.58.875.818c.151.199.458.89.458.89"/><path class="st1" d="M15 19.667l-.458-2.084M15.208 21.708L15.455 24M16 25.962s.285.778.375 1.039c.097.281.375 1.128.375 1.128M19.875 30.784s-.709-.235-.923-.361c-.254-.149-.91-.75-.91-.75M24.125 31.58s-.888.022-1.182 0c-.302-.022-1.193-.178-1.193-.178"/><path class="st3" d="M31.474 19.052c0 3.137-5.46 12.376-5.46 12.376s-6.139-9.239-6.139-12.376c0-3.135 2.597-5.681 5.801-5.681 3.202 0 5.798 2.546 5.798 5.681z"/><path class="st4" d="M27.638 19.172a1.843 1.843 0 1 1-3.686 0 1.843 1.843 0 0 1 3.686 0z"/></symbol><symbol id="icon-reliability" viewBox="0 0 32 32"><style>.st0{stroke-linecap:round;stroke-linejoin:round}.st0,.st1{fill:none;stroke:#000;stroke-miterlimit:10}.st2{display:none}</style><title>reliability</title><path class="st2" d="M23.962 2.853c.956 1.425.533 2.174.07 2.655l-.682.667a.532.532 0 0 0-.16.355l-.166 3.337a.534.534 0 0 0 .527.558.85.85 0 0 1 .63.287.776.776 0 0 1 .186.607l-.342 2.667c-.049.401-.404.703-.891.703a.534.534 0 0 0-.525.441c-.137.777-.659 1.646-.666 1.655a.534.534 0 0 0 .912.553c.022-.037.476-.787.709-1.617a1.887 1.887 0 0 0 1.52-1.6l.341-2.667a1.855 1.855 0 0 0-.438-1.443 1.904 1.904 0 0 0-.871-.566l.132-2.654.544-.532c.736-.766 1.344-2.081.059-4C23.857.774 22.162.022 19.812.022c-.146 0-.295-.004-.449-.009-1.069-.028-2.398-.063-4.062 1.049-4.613.083-6.765 1.78-6.765 5.331 0 .623.092 2.186.143 3.008A1.915 1.915 0 0 0 7.665 10c-.351.4-.514.93-.447 1.454l.34 2.667a1.886 1.886 0 0 0 1.626 1.618 9.037 9.037 0 0 0 2.538 5.038l-.512 2.004-5.311 1.298C2.536 24.9 0 28.074 0 31.461c0 .294.239.533.533.533H17.6a.534.534 0 0 0 .002-1.066H1.093c.255-2.668 2.385-5.16 5.059-5.813l5.622-1.374a.534.534 0 0 0 .39-.386l.669-2.613a.531.531 0 0 0-.156-.525c-1.403-1.285-2.33-3.169-2.482-5.037a.535.535 0 0 0-.532-.49h-.222a.823.823 0 0 1-.825-.703l-.34-2.667a.763.763 0 0 1 .19-.613.842.842 0 0 1 .634-.284h.141a.531.531 0 0 0 .532-.569c-.002-.026-.174-2.649-.174-3.459 0-2.082.698-4.217 5.872-4.267a.533.533 0 0 0 .301-.096c1.438-1.007 2.561-.976 3.559-.951.163.004.321.009.476.009 1.972 0 3.37.593 4.155 1.763z"/><path class="st2" d="M31.467 22.395h-.533v-.533c0-2.646-2.154-4.799-4.8-4.799s-4.8 2.153-4.8 4.799v.533h-.533a.533.533 0 0 0-.533.533v8.533c0 .294.239.533.533.533h10.667a.533.533 0 0 0 .533-.533v-8.533a.534.534 0 0 0-.534-.533zm-9.067-.534a3.736 3.736 0 0 1 3.732-3.733 3.737 3.737 0 0 1 3.733 3.733v.533h-7.468v-.533h.003zm8.534 9.067h-9.601v-7.467h9.601v7.467z"/><path class="st0" d="M22.358 17.063s.545-1.329.865-1.675c.191-.207.957-.592.957-.592s1.141-2.97.819-3.918c-.14-.413-1.32-1.139-1.32-1.139s-.249-2.331 0-3.052C23.854 6.18 24.799 5.497 25 5c.12-.295.094-.971 0-1.276-.185-.601-.869-1.703-1.32-2.141-.312-.302-1.084-.755-1.504-.866-.74-.195-3.053-.228-3.053-.228s-1.343.113-1.776.228c-.523.138-2.004.82-2.004.82s-1.921.089-2.544.228c-.522.116-1.578.416-2.012.729-.425.308-1.158 1.113-1.367 1.595-.221.511-.4 1.631-.41 2.187-.015.879.273 3.508.273 3.508s-1.139.257-1.367.546c-.243.307-.267 1.16-.228 1.549.061.6.215 1.816.456 2.369.104.24.373.722.592.866.227.149 1.048.273 1.048.273s.192 1.268.319 1.675c.159.514.575 1.517.866 1.97.271.423 1.275 1.549 1.275 1.549l-.729 2.688s-4.013.885-5.33 1.259c-.553.157-1.645.548-2.141.837-.444.259-1.258.907-1.595 1.295-.375.431-1.049 1.369-1.276 1.894-.295.683-.689 2.943-.689 2.943h16.969"/><path class="st0" d="M30.422 22.996s.029-1.095 0-1.458a5.405 5.405 0 0 0-.125-.679 5.99 5.99 0 0 0-.25-.703 6.221 6.221 0 0 0-.375-.672 6.088 6.088 0 0 0-.531-.656 5.153 5.153 0 0 0-.594-.5 6.704 6.704 0 0 0-.814-.438 4.199 4.199 0 0 0-.607-.203c-.243-.055-.741-.091-.99-.094a6.912 6.912 0 0 0-1.055.109 4.985 4.985 0 0 0-.752.25c-.183.08-.525.29-.688.406a5.952 5.952 0 0 0-.547.484 6.067 6.067 0 0 0-.531.625c-.134.191-.346.61-.438.826a2.166 2.166 0 0 0-.165.565c-.014.101-.054.68-.054.68l.004 1.456h-1.145v8.501H31.5V23l-1.078-.004h-8.703"/><path class="st1" d="M26.133 24.527c-.882 0-1.6.719-1.6 1.601 0 .694.447 1.281 1.066 1.502v.631a.533.533 0 0 0 1.066 0v-.631a1.596 1.596 0 0 0-.532-3.103z"/></symbol><symbol id="icon-share" viewBox="0 0 32 32"><style>.st0{fill:none;stroke:#000;stroke-miterlimit:10}</style><path class="st0" d="M25.336 22.427c-1.181 0-2.247.46-3.056 1.199l-11.088-6.467c.085-.351.139-.717.139-1.091s-.054-.738-.139-1.088l10.972-6.403a4.627 4.627 0 0 0 3.172 1.26 4.674 4.674 0 0 0 4.67-4.668A4.674 4.674 0 0 0 25.336.5a4.674 4.674 0 0 0-4.668 4.669c0 .373.055.739.14 1.087L9.837 12.659A4.642 4.642 0 0 0 6.663 11.4a4.673 4.673 0 0 0-4.669 4.668 4.675 4.675 0 0 0 4.669 4.67 4.631 4.631 0 0 0 3.174-1.262l11.089 6.467a4.338 4.338 0 0 0-.124 1.021 4.537 4.537 0 1 0 4.534-4.537z"/></symbol><symbol id="icon-star" viewBox="0 0 24 24"><title>star3</title><path d="M24 9.306l-8.292-1.205L12 .587 8.292 8.101 0 9.306l6 5.849-1.416 8.258L12 19.514l7.416 3.899L18 15.155l6-5.849z"/></symbol><symbol id="icon-user" viewBox="0 0 32 32"><title>user</title><path d="M32 16.002C32 7.185 24.815 0 15.998 0S0 7.185 0 16.002c0 4.857 2.203 9.225 5.631 12.162a.537.537 0 0 0 .162.121A15.831 15.831 0 0 0 16.039 32c3.836 0 7.389-1.387 10.163-3.632a.647.647 0 0 0 .367-.287C29.88 25.103 32 20.817 32 16.002zm-30.53 0C1.47 8.001 8.001 1.47 16.002 1.47s14.532 6.531 14.532 14.532c0 3.919-1.55 7.468-4.082 10.083-.408-1.92-1.633-5.185-5.389-7.306.858-1.062 1.345-2.449 1.345-3.919 0-3.511-2.857-6.368-6.368-6.368s-6.368 2.857-6.368 6.368c0 1.47.529 2.816 1.345 3.919-3.791 2.12-5.015 5.386-5.382 7.306A14.253 14.253 0 0 1 1.47 16.002zm9.634-1.104c0-2.695 2.203-4.898 4.898-4.898s4.898 2.203 4.898 4.898-2.203 4.898-4.898 4.898-4.898-2.203-4.898-4.898zm-4.165 12.45c.083-1.183.733-5.185 5.144-7.43 1.104.858 2.449 1.345 3.919 1.345s2.857-.529 3.961-1.387c4.369 2.245 5.061 6.164 5.185 7.43-2.491 1.999-5.673 3.224-9.101 3.224-3.473.004-6.618-1.179-9.108-3.182z"/></symbol><symbol id="icon-video" viewBox="0 0 32 32"><title>video</title><path d="M16 0C7.164 0 0 7.164 0 16s7.164 16 16 16 16-7.164 16-16S24.836 0 16 0zm-6 24V8l16.008 8L10 24z"/></symbol></svg>