<?xml version="1.0" encoding="UTF-8"?><!DOCTYPE svg PUBLIC "-//W3C//DTD SVG 1.1//EN" "http://www.w3.org/Graphics/SVG/1.1/DTD/svg11.dtd"><svg xmlns="http://www.w3.org/2000/svg"><symbol id="icon-arrow" viewBox="0 0 32 32"><title>arrow</title><path d="M9.754 16.043L24.166 1.631c.354-.354.354-.923 0-1.277s-.923-.354-1.277 0L7.835 15.408a.9.9 0 0 0 0 1.277l15.054 15.047c.174.174.408.268.635.268s.461-.087.635-.268a.9.9 0 0 0 0-1.277L9.754 16.043z"/></symbol><symbol id="icon-develop" viewBox="0 0 32 32"><title>develop</title><path d="M29.488 7.084l-.001-.007-.007-.07-.001-.01a1.106 1.106 0 0 0-.088-.31l-.001-.001a1.016 1.016 0 0 0-.074-.138l-.009-.014c-.012-.018-.024-.037-.038-.055l-.015-.019-.03-.038-.023-.027-.022-.024a.615.615 0 0 0-.024-.026L22.983.282a1.123 1.123 0 0 0-.668-.327h-.002a.972.972 0 0 0-.076-.006l-.017-.001-.036-.001H3.635c-.621 0-1.125.503-1.125 1.125V30.93c0 .622.504 1.125 1.125 1.125h24.732c.621 0 1.124-.504 1.124-1.125V7.147l-.002-.062zm-6.181-3.331l2.309 2.269h-2.309V3.753zm3.935 26.051H4.757V2.196h16.301v4.951c0 .621.505 1.125 1.124 1.125h5.059v21.532z"/><path d="M25.183 17.567l-4.58 4.58a.462.462 0 0 1-.654 0l-.654-.654a.462.462 0 0 1 0-.654l3.599-3.599-3.599-3.599a.462.462 0 0 1 0-.654l.654-.654a.462.462 0 0 1 .654 0l4.58 4.581a.462.462 0 0 1 0 .654zM14.397 24.9l-.835-.234c-.231-.064-.372-.293-.317-.51l3.72-14.306c.059-.222.308-.348.555-.283l.894.24c.247.066.399.3.339.522l-3.837 14.294c-.055.217-.288.34-.519.276zm-1.469-3.406l-.654.654a.462.462 0 0 1-.654 0l-4.581-4.58a.462.462 0 0 1 0-.654l4.581-4.581a.462.462 0 0 1 .654 0l.654.654a.462.462 0 0 1 0 .654L9.329 17.24l3.599 3.599a.462.462 0 0 1 0 .654z"/></symbol><symbol id="icon-doc" viewBox="0 0 32 32"><title>doc</title><path d="M28.375 3.625v26.813H6.719a3.094 3.094 0 1 1 0-6.188h19.594V-.5H5.688a4.137 4.137 0 0 0-4.125 4.125v24.75A4.137 4.137 0 0 0 5.688 32.5h24.75V3.625h-2.063z"/><path d="M6.721 26.313h-.002a1.032 1.032 0 0 0 0 2.062h19.592v-2.063H6.721z"/></symbol><symbol id="icon-star" viewBox="0 0 24 24"><title>star3</title><path d="M24 9.306l-8.292-1.205L12 .587 8.292 8.101 0 9.306l6 5.849-1.416 8.258L12 19.514l7.416 3.899L18 15.155l6-5.849z"/></symbol><symbol id="icon-use" viewBox="0 0 32 32"><title>use</title><path d="M16 0C7.163 0 0 7.163 0 16s7.163 16 16 16 16-7.163 16-16S24.837 0 16 0zm-4.903 16.776a4.422 4.422 0 0 0 1.804 1.596l.04 2.597c-.714-.198-1.375-.506-1.983-.922a6.88 6.88 0 0 1-2.617-3.41 6.62 6.62 0 0 1-.377-2.231c0-.939.178-1.824.535-2.657s.846-1.56 1.467-2.181 1.345-1.11 2.171-1.467a6.65 6.65 0 0 1 2.667-.535c.939 0 1.824.178 2.657.535s1.556.846 2.171 1.467 1.1 1.348 1.457 2.181a6.67 6.67 0 0 1 .535 2.657c0 .582-.066 1.117-.198 1.606l-2.241-1.467v-.139c0-.608-.116-1.18-.347-1.715s-.545-1.001-.942-1.398-.859-.71-1.388-.942c-.529-.231-1.097-.347-1.705-.347s-1.18.116-1.715.347c-.535.231-1.001.545-1.398.942s-.71.862-.942 1.398a4.281 4.281 0 0 0-.347 1.715c0 .872.231 1.662.694 2.369zm11.678 3.261c-.423.026-.902.076-1.438.149s-1.081.182-1.636.327l2.161 3.569c.185.357.218.734.099 1.13s-.364.687-.734.872c-.357.198-.734.235-1.13.109s-.687-.367-.873-.724l-1.804-4.025c-.489.291-.929.598-1.319.922s-.724.625-1.001.902c-.33.33-.621.661-.872.991l-.06-11.996 10.013 7.733c-.449-.013-.919 0-1.408.04z"/></symbol><symbol id="icon-user" viewBox="0 0 32 32"><title>user</title><path d="M32 16.002C32 7.185 24.815 0 15.998 0S0 7.185 0 16.002c0 4.857 2.203 9.225 5.631 12.162a.537.537 0 0 0 .162.121A15.831 15.831 0 0 0 16.039 32c3.836 0 7.389-1.387 10.163-3.632a.647.647 0 0 0 .367-.287C29.88 25.103 32 20.817 32 16.002zm-30.53 0C1.47 8.001 8.001 1.47 16.002 1.47s14.532 6.531 14.532 14.532c0 3.919-1.55 7.468-4.082 10.083-.408-1.92-1.633-5.185-5.389-7.306.858-1.062 1.345-2.449 1.345-3.919 0-3.511-2.857-6.368-6.368-6.368s-6.368 2.857-6.368 6.368c0 1.47.529 2.816 1.345 3.919-3.791 2.12-5.015 5.386-5.382 7.306A14.253 14.253 0 0 1 1.47 16.002zm9.634-1.104c0-2.695 2.203-4.898 4.898-4.898s4.898 2.203 4.898 4.898-2.203 4.898-4.898 4.898-4.898-2.203-4.898-4.898zm-4.165 12.45c.083-1.183.733-5.185 5.144-7.43 1.104.858 2.449 1.345 3.919 1.345s2.857-.529 3.961-1.387c4.369 2.245 5.061 6.164 5.185 7.43-2.491 1.999-5.673 3.224-9.101 3.224-3.473.004-6.618-1.179-9.108-3.182z"/></symbol><symbol id="icon-video" viewBox="0 0 32 32"><title>video</title><path d="M16 0C7.164 0 0 7.164 0 16s7.164 16 16 16 16-7.164 16-16S24.836 0 16 0zm-6 24V8l16.008 8L10 24z"/></symbol><symbol id="icon-web" viewBox="0 0 32 32"><title>web</title><path d="M26.989 18.615a178.917 178.917 0 0 1 4.004 3.078l-2.631 4.614-4.755-2.099-4.406 2.577L18.63 32h-5.262l-.584-5.231-4.342-2.583-4.807 2.122-2.63-4.614s1.817-1.464 3.968-3.066v-5.259l-3.968-3.06 2.63-4.615 4.692 2.088 4.658-2.527L13.368 0h5.262l.381 5.233 4.594 2.578 4.758-2.118 2.631 4.615-4.004 3.071v5.236zM15.999 12a4 4 0 1 0 0 8 4 4 0 0 0 0-8z"/></symbol></svg>